<?xml version="1.0" standalone="no"?>
<!DOCTYPE svg PUBLIC "-//W3C//DTD SVG 20010904//EN"
 "http://www.w3.org/TR/2001/REC-SVG-20010904/DTD/svg10.dtd">
<svg version="1.0" xmlns="http://www.w3.org/2000/svg"
 width="275.000000pt" height="183.000000pt" viewBox="0 0 275.000000 183.000000"
 preserveAspectRatio="xMidYMid meet">

<g transform="translate(0.000000,183.000000) scale(0.100000,-0.100000)"
fill="#000000" stroke="none">
<path d="M1021 1539 c-135 -26 -309 -103 -384 -170 -43 -37 -98 -128 -111
-180 -3 -15 -18 -35 -33 -45 -55 -35 -136 -120 -159 -166 -45 -90 -27 -199 41
-244 33 -21 32 -29 -6 -45 -18 -7 -91 -69 -163 -138 -73 -69 -149 -137 -169
-151 -20 -14 -37 -29 -37 -33 0 -17 97 60 209 167 66 61 141 124 169 139 47
25 53 26 106 15 42 -8 74 -8 124 0 84 14 100 5 142 -82 36 -77 102 -140 204
-197 84 -46 205 -94 262 -104 89 -14 176 36 211 121 13 32 25 46 43 50 107 23
185 83 221 170 21 50 26 55 77 74 71 27 169 39 309 40 177 0 282 32 367 110
61 56 99 118 157 255 59 139 83 187 121 243 17 24 28 45 25 48 -10 10 -89
-128 -137 -239 -74 -173 -96 -214 -148 -269 -97 -104 -169 -127 -427 -138
-151 -6 -202 -12 -250 -28 -33 -11 -61 -19 -62 -18 -10 9 22 76 45 93 15 11
40 43 56 72 29 54 30 83 11 192 -5 26 0 54 15 98 34 93 16 162 -53 197 -18 10
-74 21 -127 26 -52 5 -107 10 -122 12 -14 2 -43 17 -65 33 -92 73 -190 103
-322 102 -53 -1 -116 -5 -140 -10z m348 -44 l63 -30 -83 2 c-96 3 -151 13
-229 43 l-55 21 120 -4 c108 -3 126 -6 184 -32z m-244 -6 c5 -5 -5 -9 -25 -9
-105 -1 -228 -58 -317 -147 -36 -35 -67 -62 -70 -59 -11 11 83 120 138 161 50
37 91 54 164 68 27 6 98 -4 110 -14z m-307 -55 c-25 -19 -65 -62 -89 -96 -24
-33 -48 -65 -54 -70 -27 -24 -120 -76 -123 -68 -7 20 54 114 101 156 44 39
175 114 200 114 6 0 -10 -16 -35 -36z m367 23 c16 -12 11 -15 -46 -26 -112
-22 -244 -70 -308 -111 -34 -22 -65 -40 -68 -40 -15 0 65 74 112 105 62 40
127 65 196 75 81 11 94 11 114 -3z m65 -1 c0 -11 -19 -15 -25 -6 -3 5 1 10 9
10 9 0 16 -2 16 -4z m183 -22 c31 -16 36 -34 10 -34 -22 0 -103 42 -103 53 0
11 57 -1 93 -19z m-81 -25 c50 -13 56 -27 14 -35 -37 -6 -106 20 -114 43 -4
13 22 11 100 -8z m-182 1 c-8 -5 -45 -21 -81 -35 -64 -25 -134 -78 -156 -120
-9 -14 -14 -16 -25 -8 -7 6 -32 17 -55 24 -31 9 -40 15 -33 24 17 20 151 78
235 101 87 24 141 31 115 14z m70 -11 c0 -5 -12 -9 -27 -9 -27 1 -27 1 -9 15
19 14 36 12 36 -6z m20 -34 c10 -12 7 -16 -16 -25 -45 -17 -226 -111 -253
-131 -22 -18 -41 -17 -41 1 0 19 56 73 126 120 65 43 83 50 124 50 30 0 52 -5
60 -15z m284 -10 c14 -21 14 -25 2 -25 -13 0 -36 28 -36 44 0 15 19 4 34 -19z
m153 -5 c72 -53 142 -185 114 -213 -8 -8 -11 -5 -11 11 0 33 -89 116 -157 147
-37 17 -65 38 -76 56 l-16 29 52 0 c43 0 61 -6 94 -30z m77 16 c63 -26 86 -75
70 -155 -7 -33 -24 -43 -24 -13 0 29 -57 118 -97 151 l-38 31 28 0 c15 0 42
-6 61 -14z m-339 -6 c3 -5 -1 -10 -10 -10 -9 0 -13 5 -10 10 3 6 8 10 10 10 2
0 7 -4 10 -10z m60 -1 c12 -19 -5 -23 -22 -6 -16 16 -16 17 -1 17 9 0 20 -5
23 -11z m-446 -22 c-2 -2 -28 -26 -58 -53 -40 -36 -49 -41 -36 -21 16 24 80
77 94 77 2 0 2 -1 0 -3z m380 -51 l24 -26 -34 0 c-19 0 -43 7 -53 15 -11 8
-28 15 -39 15 -29 0 -14 24 19 31 34 7 51 0 83 -35z m26 38 c14 -6 45 -53 45
-69 0 -14 -23 -2 -50 28 -40 44 -38 57 5 41z m-222 -41 c-29 -14 -83 -53 -120
-86 -57 -53 -64 -57 -47 -28 26 46 105 115 146 128 61 20 73 12 21 -14z m360
-53 c10 -41 5 -46 -27 -23 -18 13 -25 27 -26 52 0 32 1 33 22 19 12 -8 26 -30
31 -48z m83 28 c52 -36 58 -50 22 -59 -18 -4 -31 4 -60 35 -20 23 -37 44 -38
49 0 16 30 6 76 -25z m-378 -12 c3 -19 -4 -37 -21 -55 -43 -46 -61 -92 -61
-158 -1 -35 -5 -63 -9 -63 -11 0 -137 102 -137 110 0 26 193 204 213 197 7 -2
13 -16 15 -31z m57 15 c3 -6 -3 -15 -14 -20 -15 -9 -20 -7 -24 9 -4 15 0 20
13 20 11 0 21 -4 25 -9z m-478 -17 c22 -11 32 -22 29 -31 -4 -8 -6 -17 -6 -19
0 -2 -12 -4 -27 -4 -26 0 -56 -8 -135 -35 -42 -15 -43 -14 -27 18 32 62 60 87
95 87 20 0 52 -7 71 -16z m-167 1 c0 -4 -6 -18 -14 -33 -22 -43 -56 -178 -56
-223 0 -49 30 -110 65 -133 24 -16 25 -20 19 -69 -4 -29 -8 -54 -11 -56 -7 -9
-75 65 -96 104 -18 33 -22 56 -22 135 1 99 16 150 76 247 18 29 39 44 39 28z
m410 -80 c-41 -41 -77 -75 -79 -75 -3 0 28 34 69 75 41 41 77 75 79 75 3 0
-28 -34 -69 -75z m358 48 c21 -29 14 -57 -19 -77 -17 -10 -32 -16 -33 -14 -2
1 -6 29 -9 61 l-6 59 27 -7 c15 -3 33 -13 40 -22z m-864 -67 c-28 -58 -38 -95
-43 -154 l-7 -77 -12 40 c-17 54 -26 147 -18 179 4 16 26 39 58 61 29 19 53
33 55 31 2 -2 -13 -38 -33 -80z m785 47 c17 -61 14 -89 -13 -107 -13 -8 -39
-36 -57 -61 -18 -25 -33 -44 -35 -42 -1 1 4 27 12 57 8 30 14 80 14 111 0 48
3 57 23 67 37 18 46 14 56 -25z m241 6 c9 -16 7 -19 -10 -19 -15 0 -20 7 -20
26 0 27 14 25 30 -7z m-125 12 c3 -5 1 -12 -4 -15 -5 -3 -11 1 -15 9 -6 16 9
21 19 6z m-505 -26 c-13 -14 -26 -22 -29 -19 -3 3 5 14 18 25 33 27 39 24 11
-6z m41 -4 c-12 -16 -25 -39 -30 -52 -8 -21 -10 -22 -16 -6 -5 11 2 29 19 52
32 42 56 47 27 6z m509 4 c10 -12 10 -15 -4 -15 -9 0 -16 7 -16 15 0 8 2 15 4
15 2 0 9 -7 16 -15z m-258 -72 c-10 -72 -35 -143 -50 -143 -16 0 -22 59 -11
108 9 43 55 119 66 109 2 -3 0 -36 -5 -74z m462 55 c24 -34 20 -36 -28 -14
-29 13 -41 23 -33 28 22 14 46 8 61 -14z m-877 -4 c-3 -3 -12 -4 -19 -1 -8 3
-5 6 6 6 11 1 17 -2 13 -5z m707 -13 c3 -5 -5 -16 -19 -25 -30 -20 -32 -20
-32 2 0 27 38 44 51 23z m86 -79 c0 -77 -18 -127 -62 -175 l-39 -42 25 45 c36
66 49 135 36 195 -9 38 -8 50 2 56 22 14 38 -21 38 -79z m-939 43 c-11 -15
-23 -43 -27 -64 -11 -62 -21 -67 -29 -15 -7 47 -6 50 30 82 42 38 58 36 26 -3z
m137 15 c1 -8 -16 -40 -39 -70 -23 -30 -51 -74 -62 -97 -23 -47 -28 -50 -47
-28 -28 33 13 178 57 204 26 16 87 9 91 -9z m880 -6 c12 -8 22 -24 22 -35 0
-35 -62 -140 -118 -201 -53 -57 -118 -105 -128 -95 -3 3 12 17 34 31 104 65
154 173 133 284 -8 40 -7 42 13 36 11 -3 31 -12 44 -20z m-1218 -189 c11 -33
42 -94 70 -135 27 -41 48 -75 47 -76 -1 -1 -28 3 -61 8 -41 7 -75 7 -113 -1
-50 -10 -59 -9 -89 9 -35 22 -74 91 -74 132 0 70 52 155 135 221 l50 40 8 -69
c4 -38 16 -96 27 -129z m404 187 c6 -11 -26 -102 -36 -102 -13 0 -9 85 4 98
14 14 25 15 32 4z m529 -23 c-10 -17 -26 -37 -35 -46 -17 -15 -18 -14 -18 10
0 16 10 33 28 46 38 29 46 26 25 -10z m54 -1 c-3 -8 -6 -5 -6 6 -1 11 2 17 5
13 3 -3 4 -12 1 -19z m-533 -3 c13 -13 13 -19 0 -50 -8 -19 -14 -51 -15 -72
-1 -21 -4 -49 -8 -61 -6 -23 -7 -22 -29 17 -15 26 -21 49 -17 64 7 25 47 117
51 117 1 0 9 -7 18 -15z m596 -2 c-1 -46 -60 -249 -77 -261 -25 -18 -26 -4 -3
63 12 33 23 87 27 120 5 55 24 95 45 95 4 0 8 -8 8 -17z m29 -91 c-10 -46 -47
-127 -55 -120 -2 3 8 56 23 119 25 104 28 111 34 79 4 -19 3 -55 -2 -78z
m-719 -105 c6 -33 9 -61 6 -64 -8 -8 -92 25 -118 47 -22 18 -23 18 -5 56 10
22 33 60 50 87 l32 47 12 -57 c6 -32 16 -84 23 -116z m497 129 c-5 -12 -67
-41 -67 -31 0 2 15 21 33 41 25 30 33 34 35 20 2 -9 1 -23 -1 -30z m-274 -16
c26 -19 47 -39 47 -43 0 -5 -17 -7 -37 -5 -32 3 -41 9 -60 43 -38 67 -32 68
50 5z m377 27 c0 -35 -36 -111 -72 -151 -22 -26 -44 -46 -48 -46 -5 0 -3 17 4
38 7 20 17 56 20 79 6 32 15 47 44 67 43 29 52 31 52 13z m9 -80 c-22 -92 -45
-137 -72 -137 -37 0 -38 10 -5 44 33 33 77 118 79 151 0 11 3 14 6 7 3 -7 -1
-36 -8 -65z m-461 37 c7 -14 8 -23 2 -19 -15 9 -32 45 -22 45 5 0 14 -12 20
-26z m732 -34 l-11 -25 6 25 c2 14 5 34 6 45 2 19 2 19 6 0 2 -12 -1 -32 -7
-45z m49 -14 c-6 -26 -26 -61 -46 -83 -38 -42 -38 -42 9 73 35 87 58 93 37 10z
m-1159 36 c0 -9 9 -36 20 -60 21 -46 9 -49 -14 -4 -20 39 -31 96 -17 88 6 -4
11 -15 11 -24z m377 -28 c21 -14 46 -39 56 -55 l19 -29 -28 -10 c-36 -14 -50
-8 -74 32 -17 29 -28 88 -15 88 2 0 21 -12 42 -26z m337 -11 c-3 -16 -10 -42
-16 -60 l-9 -32 -35 22 c-18 12 -34 24 -34 27 1 5 91 70 98 70 1 0 0 -12 -4
-27z m360 -30 c-11 -48 -21 -65 -55 -95 -23 -20 -58 -39 -77 -43 -40 -7 -55 2
-28 17 33 19 95 79 132 129 20 27 37 49 39 49 1 0 -4 -26 -11 -57z m-524 8 c0
-4 -15 -12 -32 -19 -30 -11 -34 -10 -50 10 -17 23 -17 23 20 28 34 5 62 -3 62
-19z m-240 -78 c0 -7 -4 -13 -9 -13 -12 0 -51 63 -51 81 0 16 59 -51 60 -68z
m40 18 l23 -34 -26 18 c-15 9 -27 27 -27 38 0 11 1 18 3 16 2 -2 14 -19 27
-38z m200 34 c0 -2 -10 -9 -22 -15 -22 -11 -22 -10 -4 4 21 17 26 19 26 11z
m105 -63 c17 -10 13 -11 -27 -12 -25 0 -53 3 -62 6 -14 5 -14 9 1 35 l17 29
26 -24 c14 -13 34 -28 45 -34z m-519 11 c-9 -10 -46 9 -46 23 0 12 4 12 25 -2
14 -9 24 -19 21 -21z m344 -13 c0 -5 -12 -10 -27 -9 -25 0 -26 1 -8 9 27 12
35 12 35 0z m-252 -16 c31 -6 27 -20 -10 -33 -28 -10 -36 -8 -70 14 -21 14
-38 27 -38 29 0 4 84 -3 118 -10z m812 -9 c-7 -8 -17 -15 -23 -15 -5 0 -2 9 8
20 21 23 35 19 15 -5z m-925 -15 c32 -34 32 -35 -12 -45 -33 -7 -33 -7 -33 34
0 23 4 41 8 41 5 0 21 -13 37 -30z m285 5 l25 -13 -27 -7 c-34 -9 -58 -1 -58
20 0 19 27 19 60 0z m173 -2 c-7 -2 -19 -2 -25 0 -7 3 -2 5 12 5 14 0 19 -2
13 -5z m181 1 c27 -10 7 -24 -35 -24 -44 0 -53 17 -11 23 15 2 28 5 29 6 1 0
8 -2 17 -5z m-425 -18 c9 -11 8 -15 -5 -20 -20 -8 -34 1 -34 20 0 18 24 18 39
0z m-59 -10 c0 -9 -7 -12 -21 -9 -16 4 -17 8 -7 14 19 13 28 11 28 -5z m190 9
c0 -9 -58 -34 -64 -28 -4 4 6 12 21 19 31 14 43 16 43 9z m158 -22 c-14 -14
-48 -9 -48 7 0 10 40 18 53 12 5 -2 3 -11 -5 -19z m-64 -2 c10 -11 15 -24 12
-30 -12 -19 -64 -22 -102 -6 l-38 16 29 19 c38 25 77 25 99 1z m466 13 c0 -13
-62 -94 -86 -113 -30 -24 -101 -48 -111 -38 -3 4 -1 25 6 47 11 36 19 44 69
67 84 39 122 51 122 37z m-326 -13 c16 -6 13 -10 -23 -24 -49 -20 -70 -14 -45
14 18 20 36 23 68 10z m136 -15 c0 -27 -8 -32 -76 -41 l-49 -7 29 30 c17 18
42 33 60 35 17 2 32 5 34 5 1 1 2 -9 2 -22z m90 19 c0 -5 -55 -35 -65 -35 -3
0 -5 9 -5 20 0 16 7 20 35 20 19 0 35 -2 35 -5z m-658 -41 c26 -4 57 -17 78
-35 l34 -29 -84 0 c-88 1 -210 32 -217 57 -3 7 16 18 44 26 41 12 52 12 75 0
15 -7 47 -16 70 -19z m771 16 c-3 -10 -12 -25 -21 -32 -13 -11 -12 -8 2 20 19
36 27 41 19 12z m-750 3 c-7 -2 -19 -2 -25 0 -7 3 -2 5 12 5 14 0 19 -2 13 -5z
m70 0 c-7 -2 -19 -2 -25 0 -7 3 -2 5 12 5 14 0 19 -2 13 -5z m-423 -23 c10 -7
-8 -10 -60 -10 -52 0 -70 3 -60 10 8 5 35 10 60 10 25 0 52 -5 60 -10z m555
-31 l40 -1 -55 -14 c-53 -13 -56 -12 -95 13 -34 22 -37 27 -21 33 11 3 34 -2
55 -12 19 -10 53 -18 76 -19z m-45 31 c8 -5 11 -10 5 -10 -5 0 -17 5 -25 10
-8 5 -10 10 -5 10 6 0 17 -5 25 -10z m250 -10 c-27 -21 -40 -25 -40 -12 0 9
38 30 55 31 6 0 -1 -8 -15 -19z m-95 0 c-3 -5 -14 -10 -23 -10 -15 0 -15 2 -2
10 20 13 33 13 25 0z m217 -41 c-4 -19 -16 -35 -25 -37 -21 -4 -113 41 -96 47
21 7 124 27 127 25 2 -1 -1 -17 -6 -35z m-207 -4 c-16 -8 -52 -14 -80 -14
l-50 1 45 13 c25 7 61 13 80 13 l35 0 -30 -13z m405 7 c0 -5 -14 -30 -31 -55
-33 -50 -89 -88 -151 -105 -43 -12 -44 -9 -28 50 9 32 15 37 48 43 21 3 65 21
97 40 68 39 65 38 65 27z m-725 -77 c81 -22 298 -31 409 -16 48 7 90 11 92 9
1 -2 -2 -23 -8 -46 -10 -42 -11 -42 -57 -42 -59 0 -271 35 -376 61 -73 19
-245 91 -245 103 0 2 28 -8 63 -24 34 -15 90 -36 122 -45z m428 46 c31 -17 54
-32 49 -35 -4 -2 -60 -9 -124 -15 -135 -13 -271 -2 -363 28 l-60 20 190 -2
c163 -2 194 0 220 15 17 10 30 17 30 17 0 1 26 -12 58 -28z m-453 -75 c96 -32
253 -64 391 -79 l109 -12 -21 -43 c-12 -24 -38 -55 -57 -70 -31 -24 -44 -27
-111 -27 -74 0 -81 2 -212 67 -148 72 -221 131 -259 207 l-22 43 54 -30 c29
-17 87 -42 128 -56z"/>
</g>
</svg>
