<?xml version="1.0" encoding="UTF-8" standalone="no"?>
<svg
   width="512"
   height="512"
   viewBox="0 0 512 512"
   version="1.1"
   id="svg1"
   xmlns="http://www.w3.org/2000/svg"
   xmlns:svg="http://www.w3.org/2000/svg">
  <defs
     id="defs1" />
  <g
     id="surface1">
    <rect
       style="fill:#ffffff;fill-opacity:1;fill-rule:evenodd;stroke:#ffffff;stroke-width:7.80472;stroke-linecap:round;stroke-linejoin:round;stroke-opacity:1"
       id="rect1"
       width="502.8244"
       height="504.04776"
       x="4.8936677"
       y="4.8936677"
       ry="0" />
    <path
       style="fill:#000000;fill-opacity:1;fill-rule:nonzero;stroke:none"
       d="m 189.95312,81.328125 c -25.11718,7.265625 -57.48828,28.785155 -71.4414,47.511715 -8,10.33985 -18.23438,35.77344 -20.652345,50.30469 -0.558594,4.19141 -3.347656,9.78125 -6.136719,12.57422 -10.234375,9.78516 -25.304687,33.53906 -29.582031,46.39453 -8.375,25.15234 -5.023437,55.61719 7.625,68.19141 6.140625,5.87109 5.957031,8.10547 -1.113281,12.57812 -3.351563,1.95703 -16.929688,19.28125 -30.328125,38.56641 C 24.746094,376.73437 10.605469,395.73828 6.882812,399.65234 3.164062,403.5625 0,407.75391 0,408.875 c 0,4.75 18.046875,-16.76953 38.882812,-46.67578 12.28125,-17.04688 26.234376,-34.65235 31.441407,-38.84375 8.746093,-6.98828 9.863281,-7.26953 19.722656,-4.19531 7.8125,2.23828 13.765625,2.23828 23.070315,0 15.6289,-3.91016 18.60547,-1.39454 26.41797,22.91796 6.69921,21.51954 18.97656,39.12891 37.95312,55.0586 15.62891,12.85547 38.14063,26.26953 48.74609,29.0625 16.55469,3.91406 32.74219,-10.0586 39.25391,-33.81641 2.41797,-8.9414 4.65234,-12.85547 8,-13.97265 19.90625,-6.42579 34.41797,-23.19532 41.11719,-47.51172 3.90625,-13.97266 4.83594,-15.3711 14.32422,-20.67969 13.21093,-7.54688 31.4414,-10.89844 57.48828,-11.17969 32.92969,0 52.46484,-8.9414 68.28125,-30.74219 11.34765,-15.65234 18.41797,-32.97656 29.20703,-71.26562 10.97656,-38.84766 15.44141,-52.26172 22.51172,-67.91406 3.16406,-6.70703 5.21094,-12.57422 4.65234,-13.41406 -1.85937,-2.79297 -16.55859,35.77343 -25.48828,66.79296 -13.76953,48.35157 -17.85937,59.8086 -27.53516,75.17969 -18.04687,29.06641 -31.4414,35.49609 -79.4414,38.57031 -28.09375,1.67578 -37.58203,3.35157 -46.51172,7.82422 -6.14063,3.07422 -11.34766,5.3086 -11.53516,5.03125 -1.85937,-2.51562 4.09375,-21.24219 8.3711,-25.99219 2.79297,-3.07421 7.4414,-12.01953 10.41797,-20.12109 5.39843,-15.09375 5.58203,-23.19922 2.04687,-53.66016 -0.92969,-7.26562 0,-15.09375 2.79297,-27.39062 6.32422,-25.98828 2.97656,-45.27344 -9.86328,-55.05469 -3.34766,-2.79687 -13.76563,-5.87109 -23.625,-7.26562 -9.67578,-1.39844 -19.91016,-2.79688 -22.69922,-3.35547 -2.60547,-0.55859 -8,-4.75 -12.09375,-9.22266 C 258.78906,86.636719 240.55859,78.253906 216,78.53125 c -9.85938,0.28125 -21.58203,1.398438 -26.04688,2.796875 z m 64.7461,12.296875 11.71875,8.38281 -15.44141,-0.55859 c -17.85937,-0.83594 -28.09375,-3.632814 -42.60547,-12.015626 l -10.23047,-5.871094 22.32422,1.117188 c 20.09375,0.839843 23.44141,1.679687 34.23438,8.945312 z m -45.39844,1.675781 c 0.93359,1.398438 -0.92969,2.515625 -4.64844,2.515625 -19.53515,0.28125 -42.41797,16.210934 -58.97656,41.082034 -6.69922,9.78125 -12.46484,17.32812 -13.02344,16.48828 -2.04687,-3.07422 15.44141,-33.53516 25.67188,-44.99219 9.30469,-10.34375 16.92969,-15.093749 30.51172,-19.007811 5.02343,-1.675781 18.23437,1.121093 20.46484,3.914062 z M 152.1875,110.67188 c -4.65234,5.3125 -12.09375,17.32812 -16.55859,26.83203 -4.46485,9.22265 -8.92969,18.16406 -10.04688,19.5625 -5.02344,6.70703 -22.32812,21.23828 -22.88281,19.0039 -1.30469,-5.58984 10.04687,-31.85937 18.78906,-43.59765 8.1875,-10.90235 32.55859,-31.85938 37.21094,-31.85938 1.11328,0 -1.86328,4.46875 -6.51172,10.0586 z m 68.27734,-6.42579 c 2.97657,3.35157 2.04688,4.19141 -8.55859,7.26563 -20.83594,6.14844 -45.39453,19.5625 -57.30078,31.01953 -6.32813,6.14844 -12.09375,11.17969 -12.65235,11.17969 -2.78906,0 12.09375,-20.67969 20.83594,-29.34375 11.53516,-11.17969 23.62891,-18.16797 36.46485,-20.96094 15.07031,-3.07422 17.49218,-3.07422 21.21093,0.83984 z m 12.09375,0.27735 c 0,3.07422 -3.53515,4.1914 -4.65234,1.67578 -0.55859,-1.39453 0.1875,-2.79297 1.67578,-2.79297 1.67188,0 2.97656,0.55859 2.97656,1.11719 z m 34.04688,6.14844 c 5.76562,4.47265 6.69531,9.5039 1.85937,9.5039 -4.09375,0 -19.16406,-11.73828 -19.16406,-14.8125 0,-3.07422 10.60547,0.27735 17.30469,5.3086 z m -15.07031,6.98828 c 9.30078,3.63281 10.41796,7.54687 2.60546,9.78125 -6.88671,1.67578 -19.72265,-5.58985 -21.21093,-12.01953 -0.74219,-3.63282 4.09375,-3.07422 18.60547,2.23828 z m -33.85938,-0.28125 c -1.48828,1.39843 -8.375,5.87109 -15.07031,9.78125 -11.90625,6.98828 -24.92969,21.80078 -29.02344,33.53906 -1.67578,3.91406 -2.60547,4.47265 -4.65234,2.23437 -1.30078,-1.67578 -5.95313,-4.75 -10.23047,-6.70703 -5.76953,-2.51562 -7.44531,-4.1914 -6.14063,-6.70703 3.16407,-5.58984 28.09375,-21.80078 43.71875,-28.22656 16.1875,-6.70703 26.23438,-8.66406 21.39844,-3.91406 z m 13.02344,3.07422 c 0,1.39843 -2.23438,2.51562 -5.02344,2.51562 -5.02344,-0.27734 -5.02344,-0.27734 -1.67578,-4.19141 3.53516,-3.91406 6.69922,-3.35546 6.69922,1.67579 z m 3.71875,9.5039 c 1.85937,3.35156 1.30469,4.47266 -2.97656,6.98438 -8.3711,4.7539 -42.04688,31.02343 -47.07032,36.61328 -4.09375,5.03125 -7.625,4.75 -7.625,-0.28125 0,-5.3086 10.41797,-20.39844 23.44141,-33.53516 12.08984,-12.01953 15.44141,-13.97265 23.06641,-13.97265 5.58203,0 9.67578,1.39453 11.16406,4.1914 z m 52.83594,2.79297 c 2.60546,5.87109 2.60546,6.98828 0.375,6.98828 -2.41797,0 -6.69922,-7.82422 -6.69922,-12.29687 0,-4.19141 3.53515,-1.11719 6.32422,5.30859 z m 28.46875,1.39844 c 13.39453,14.8125 26.41796,51.70312 21.20703,59.52734 -1.48828,2.23828 -2.04688,1.39844 -2.04688,-3.07422 0,-9.22265 -16.55859,-32.41797 -29.20703,-41.08203 -6.88672,-4.75 -12.09375,-10.62109 -14.14062,-15.65234 l -2.97657,-8.10156 h 9.67578 c 8,0 11.34766,1.67578 17.48829,8.38281 z m 14.32421,-4.47266 c 11.71875,7.26563 16,20.96094 13.02344,43.32031 -1.30469,9.22266 -4.46484,12.01563 -4.46484,3.63282 0,-8.10547 -10.60547,-32.97657 -18.04688,-42.19922 l -7.07031,-8.66406 h 5.21094 c 2.78906,0 7.8125,1.67578 11.34765,3.91015 z m -63.07031,1.67969 c 0.5586,1.39453 -0.1875,2.79297 -1.85937,2.79297 -1.67578,0 -2.41797,-1.39844 -1.86328,-2.79297 0.55859,-1.67969 1.49218,-2.79688 1.86328,-2.79688 0.37109,0 1.30078,1.11719 1.85937,2.79688 z m 11.16406,0.27734 c 2.23047,5.3086 -0.92968,6.42969 -4.09375,1.67578 -2.97656,-4.46875 -2.97656,-4.75 -0.1875,-4.75 1.67579,0 3.72266,1.39844 4.28125,3.07422 z m -82.97656,6.14844 c -0.375,0.55859 -5.21094,7.26562 -10.79297,14.8125 -7.4414,10.0625 -9.11718,11.45703 -6.69531,5.86719 2.97656,-6.70703 14.88281,-21.51953 17.48828,-21.51953 0.3711,0 0.3711,0.28125 0,0.83984 z m 70.69531,14.25391 4.46485,7.26562 H 264 c -3.53516,0 -8,-1.95703 -9.85938,-4.19141 -2.04687,-2.23437 -5.21093,-4.1914 -7.25781,-4.1914 -5.39453,0 -2.60547,-6.70703 3.53516,-8.66406 6.32812,-1.95704 9.48828,0 15.4414,9.78125 z m 4.83985,-10.6211 c 2.60156,1.67578 8.37109,14.8125 8.37109,19.28516 0,3.91406 -4.28125,0.55859 -9.30469,-7.82422 -7.4414,-12.29688 -7.0664,-15.93359 0.9336,-11.46094 z M 229.39453,152.875 c -5.39453,3.91016 -15.44141,14.8125 -22.32422,24.03516 -10.60547,14.80859 -11.90625,15.92968 -8.74609,7.82421 4.83984,-12.85546 19.53515,-32.14062 27.16406,-35.77343 11.34766,-5.58985 13.58203,-3.35547 3.90625,3.91406 z m 66.97656,14.8125 c 1.86328,11.45703 0.92969,12.85547 -5.02343,6.42578 -3.34766,-3.63281 -4.64844,-7.54687 -4.83594,-14.53125 0,-8.94531 0.1875,-9.22266 4.09375,-5.3125 2.23047,2.23828 4.83594,8.38672 5.76562,13.41797 z m 15.44141,-7.82813 c 9.67578,10.0625 10.79297,13.97657 4.09375,16.48829 -3.34766,1.12109 -5.76563,-1.11719 -11.16016,-9.78125 -3.72265,-6.42579 -6.88672,-12.29688 -7.07031,-13.69141 0,-4.47266 5.57813,-1.67969 14.13672,6.98437 z m -70.32422,3.35547 c 0.55859,5.3086 -0.74219,10.33985 -3.90625,15.3711 -8,12.85547 -11.34766,25.71093 -11.34766,44.15625 -0.1875,9.78125 -0.93359,17.60547 -1.67578,17.60547 -2.04687,0 -25.48828,-28.50391 -25.48828,-30.74219 0,-7.26563 35.90625,-57.01172 39.62891,-55.05469 1.30078,0.55859 2.41797,4.47266 2.78906,8.66406 z m 10.60547,-4.1914 c 0.55859,1.67578 -0.55859,4.1914 -2.60547,5.58984 -2.78906,2.51172 -3.72266,1.95313 -4.46484,-2.51562 -0.7461,-4.19532 0,-5.58985 2.41797,-5.58985 2.04687,0 3.90625,1.11719 4.65234,2.51563 z m -88.92969,4.75 c 4.08985,3.07422 5.95313,6.14843 5.39453,8.66406 -0.74609,2.23437 -1.11718,4.75 -1.11718,5.30859 0,0.5586 -2.23047,1.11719 -5.02344,1.11719 -4.83594,0 -10.41797,2.23828 -25.11719,9.78125 -7.8125,4.19531 -8,3.91406 -5.02344,-5.02734 5.95703,-17.32813 11.16407,-24.31641 17.67578,-24.31641 3.72266,0 9.67579,1.95703 13.21094,4.47266 z m -31.07031,-0.28125 c 0,1.12109 -1.11719,5.03125 -2.60547,9.22265 -4.09375,12.01953 -10.41797,49.7461 -10.41797,62.32422 0,13.69531 5.58203,30.74219 12.09375,37.17188 4.46485,4.46875 4.64844,5.58984 3.53516,19.28125 -0.7461,8.10547 -1.48828,15.09375 -2.04688,15.65234 -1.30468,2.51563 -13.95312,-18.16797 -17.86328,-29.06641 -3.34765,-9.22265 -4.08984,-15.64843 -4.08984,-37.73046 0.18359,-27.66797 2.97656,-41.91797 14.13672,-69.02735 3.35156,-8.10547 7.25781,-12.29687 7.25781,-7.82812 z m 76.27734,22.35937 c -7.625,11.45703 -14.32422,20.96094 -14.69531,20.96094 -0.55859,0 5.20703,-9.50391 12.83594,-20.96094 7.6289,-11.45703 14.32422,-20.96094 14.69922,-20.96094 0.55468,0 -5.21094,9.50391 -12.83985,20.96094 z m 66.60547,-13.41406 c 3.90625,8.10547 2.60547,15.92969 -3.53515,21.51953 -3.16407,2.79297 -5.95313,4.47266 -6.14063,3.91016 -0.37109,-0.27735 -1.11328,-8.10157 -1.67187,-17.04688 l -1.11719,-16.48828 5.02344,1.95703 c 2.78906,0.83594 6.14062,3.63281 7.4414,6.14844 z m -160.74218,18.72266 c -5.21094,16.21093 -7.07032,26.55078 -8,43.03906 l -1.30469,21.51953 -2.23047,-11.17578 c -3.164064,-15.09375 -4.839845,-41.08594 -3.351564,-50.02735 0.746094,-4.47265 4.839844,-10.89843 10.792974,-17.04687 5.39453,-5.3125 9.85937,-9.22266 10.23046,-8.66406 0.375,0.55859 -2.41796,10.61718 -6.13671,22.35547 z m 146.04296,-13.13282 c 3.16407,17.04688 2.60547,24.8711 -2.41797,29.90235 -2.41796,2.23437 -7.2539,10.0625 -10.60546,17.04687 -3.34766,6.98828 -6.13672,12.29688 -6.50782,11.73828 -0.1875,-0.27734 0.74219,-7.54297 2.23047,-15.92968 1.48828,-8.38282 2.60547,-22.35547 2.60547,-31.01954 0,-13.41796 0.55859,-15.92968 4.27734,-18.72656 6.88672,-5.03125 8.5586,-3.91406 10.41797,6.98828 z m 44.83985,-1.67968 c 1.67187,4.47265 1.30078,5.3125 -1.86328,5.3125 -2.78907,0 -3.71875,-1.95704 -3.71875,-7.26563 0,-7.54687 2.60546,-6.98828 5.58203,1.95313 z m -23.25782,-3.35157 c 0.5586,1.39844 0.1875,3.35157 -0.74218,4.19141 -0.92969,0.83984 -2.04688,-0.27734 -2.79297,-2.51563 -1.11328,-4.47265 1.67578,-5.86718 3.53515,-1.67578 z m -93.95312,7.26563 c -2.41797,3.91406 -4.83594,6.14844 -5.39453,5.30859 -0.5586,-0.83594 0.92969,-3.91015 3.34765,-6.98437 6.14063,-7.54688 7.25782,-6.70703 2.04688,1.67578 z m 7.62891,1.11719 c -2.23438,4.47265 -4.65235,10.90234 -5.58204,14.53515 -1.48828,5.86719 -1.85937,6.14844 -2.97656,1.67578 -0.92969,-3.07422 0.3711,-8.10547 3.53516,-14.53125 5.95312,-11.73828 10.41797,-13.13672 5.02344,-1.67968 z m 94.69921,-1.11719 c 1.85938,3.35547 1.85938,4.1914 -0.74609,4.1914 -1.67578,0 -2.97656,-1.95703 -2.97656,-4.1914 0,-2.23438 0.37109,-4.19141 0.74219,-4.19141 0.375,0 1.67578,1.95703 2.98046,4.19141 z m -48,20.12109 c -1.86328,20.125 -6.51171,39.96485 -9.30468,39.96485 -2.97657,0 -4.09375,-16.48829 -2.04688,-30.1836 1.67578,-12.01562 10.23438,-33.2539 12.28125,-30.46094 0.3711,0.83985 0,10.0625 -0.92969,20.67969 z m 85.95313,-15.37109 c 4.46484,9.5039 3.71875,10.0625 -5.21094,3.91406 -5.39453,-3.63281 -7.6289,-6.42969 -6.14062,-7.82422 4.09375,-3.91406 8.55859,-2.23828 11.35156,3.91016 z m -163.16406,1.12109 c -0.5586,0.83594 -2.23438,1.11719 -3.53516,0.27735 -1.48828,-0.83985 -0.92969,-1.67579 1.11719,-1.67579 2.04687,-0.28125 3.16015,0.5586 2.41797,1.39844 z m 131.53515,3.63281 c 0.5586,1.39454 -0.92968,4.46875 -3.53515,6.98438 -5.58203,5.58984 -5.95313,5.58984 -5.95313,-0.55859 0,-7.54688 7.07031,-12.29688 9.48828,-6.42579 z m 16,22.07813 c 0,21.51953 -3.34765,35.49219 -11.53515,48.90625 l -7.25782,11.73828 4.65235,-12.57422 c 6.69922,-18.44531 9.11719,-37.73047 6.69922,-54.5 -1.67578,-10.62109 -1.48828,-13.97265 0.37109,-15.64844 4.09375,-3.91406 7.07031,5.86719 7.07031,22.07813 z M 137.85937,199.82422 c -2.04687,4.1914 -4.27734,12.01953 -5.02343,17.88672 -2.04688,17.32812 -3.90625,18.72656 -5.39453,4.1914 -1.30078,-13.13281 -1.11719,-13.97265 5.58203,-22.91406 7.8125,-10.62109 10.78906,-10.0625 4.83593,0.83594 z m 25.48829,-4.19141 c 0.1875,2.23438 -2.97657,11.17969 -7.25391,19.5625 -4.28125,8.38672 -9.48828,20.6836 -11.53516,27.10938 -4.28125,13.13672 -5.21093,13.97656 -8.74609,7.82812 -5.20703,-9.22265 2.42187,-49.75 10.60547,-57.01562 4.83594,-4.47266 16.1875,-2.51563 16.92969,2.51562 z m 163.72265,1.67578 c 2.23047,2.23828 4.09375,6.70703 4.09375,9.78125 0,9.78516 -11.53515,39.12891 -21.95312,56.17578 -9.86328,15.92969 -21.95703,29.34766 -23.81641,26.55079 -0.55859,-0.83985 2.23438,-4.75 6.32813,-8.66407 19.34765,-18.16406 28.64843,-48.34765 24.74218,-79.37109 -1.48828,-11.17969 -1.30078,-11.73828 2.41797,-10.0625 2.04688,0.83984 5.76953,3.35547 8.1875,5.58984 z m -226.60547,52.82422 c 2.04688,9.22266 7.8125,26.26953 13.02344,37.72656 5.02344,11.46094 8.92969,20.96094 8.7461,21.24219 -0.1875,0.27735 -5.21094,-0.83984 -11.35157,-2.23828 -7.6289,-1.95312 -13.953122,-1.95312 -21.023435,0.28125 -9.300781,2.79297 -10.976563,2.51563 -16.558594,-2.51562 -6.511719,-6.14844 -13.765625,-25.4336 -13.765625,-36.89063 0,-19.5625 9.675782,-43.32031 25.117188,-61.76562 l 9.300781,-11.17969 1.488281,19.28515 c 0.746094,10.6211 2.976563,26.83204 5.023434,36.05469 z m 75.16407,-52.26562 c 1.11718,3.07422 -4.83985,28.50781 -6.69922,28.50781 -2.41797,0 -1.67578,-23.75391 0.74609,-27.38672 2.60156,-3.91406 4.64844,-4.19531 5.95313,-1.12109 z m 98.41796,6.42968 c -1.85937,4.75 -4.83593,10.33985 -6.51171,12.85547 -3.16407,4.19141 -3.34766,3.91407 -3.34766,-2.79297 0,-4.47265 1.85937,-9.22265 5.20703,-12.85546 7.07031,-8.10547 8.55859,-7.26954 4.65234,2.79296 z m 10.04688,0.28125 c -0.55859,2.23438 -1.11719,1.39454 -1.11719,-1.67968 -0.1875,-3.07422 0.3711,-4.75 0.92969,-3.63282 0.55859,0.83985 0.74609,3.35547 0.1875,5.3125 z m -99.16406,0.83594 c 2.41797,3.63281 2.41797,5.3125 0,13.97266 -1.48828,5.3125 -2.60547,14.2539 -2.78907,20.125 -0.1875,5.86719 -0.74609,13.69531 -1.48828,17.04687 -1.11718,6.42969 -1.30468,6.14844 -5.39843,-4.75 -2.78907,-7.26562 -3.90625,-13.69531 -3.16016,-17.88672 1.30078,-6.98828 8.74219,-32.69921 9.48828,-32.69921 0.18359,0 1.67188,1.95703 3.34766,4.1914 z m 110.88281,0.5586 c -0.18359,12.85546 -11.16016,69.58984 -14.32422,72.94531 -4.65234,5.03125 -4.83594,1.11719 -0.55859,-17.60938 2.23437,-9.22265 4.28125,-24.3125 5.02343,-33.53515 0.92969,-15.3711 4.46485,-26.55078 8.3711,-26.55078 0.74609,0 1.48828,2.23437 1.48828,4.75 z m 5.39844,25.43359 c -1.86328,12.85547 -8.7461,35.49219 -10.23438,33.53516 -0.37109,-0.83594 1.48828,-15.64844 4.27735,-33.25391 4.65234,-29.06641 5.21093,-31.02344 6.32812,-22.08203 0.74219,5.3125 0.55859,15.37109 -0.37109,21.80078 z M 167.44141,260.75 c 1.11718,9.22266 1.67578,17.05078 1.11718,17.88672 -1.48828,2.23828 -17.11718,-6.98438 -21.95312,-13.13281 -4.09375,-5.03125 -4.28125,-5.03125 -0.92969,-15.65235 1.85938,-6.14844 6.13672,-16.76953 9.30078,-24.3125 l 5.95313,-13.13672 2.23437,15.92969 c 1.11328,8.94141 2.97656,23.47656 4.27735,32.41797 z m 92.46484,-36.05078 c -0.92969,3.35156 -12.46484,11.45703 -12.46484,8.66406 0,-0.55859 2.79296,-5.87109 6.14062,-11.46094 4.65234,-8.38281 6.14063,-9.5 6.51172,-5.58984 0.37109,2.51562 0.18359,6.42969 -0.1875,8.38672 z m -50.97656,4.47265 c 4.83593,5.3086 8.74609,10.89844 8.74609,12.01563 0,1.39844 -3.16406,1.95703 -6.88672,1.39844 -5.95312,-0.83985 -7.625,-2.51563 -11.16015,-12.01953 -7.07032,-18.72266 -5.95313,-19.00391 9.30078,-1.39454 z m 70.14062,-7.54687 c 0,9.78125 -6.69922,31.01953 -13.39453,42.19922 -4.09375,7.26562 -8.1875,12.85547 -8.92969,12.85547 -0.93359,0 -0.55859,-4.75 0.74219,-10.61719 1.30078,-5.58984 3.16406,-15.65234 3.72266,-22.07813 1.11328,-8.94531 2.78906,-13.13671 8.18359,-18.72656 8,-8.10547 9.67578,-8.66406 9.67578,-3.63281 z m 1.67578,22.35937 c -4.09375,25.71094 -8.375,38.28516 -13.39843,38.28516 -6.88282,0 -7.07032,-2.79297 -0.92969,-12.29687 6.14062,-9.22266 14.32812,-32.97657 14.69922,-42.19922 0,-3.07422 0.55859,-3.91407 1.11718,-1.95703 0.55469,1.95703 -0.1875,10.0625 -1.48828,18.16796 z m -85.76953,-10.34375 c 1.30078,3.91407 1.48828,6.42969 0.3711,5.3125 -2.78907,-2.51562 -5.95313,-12.57812 -4.09375,-12.57812 0.93359,0 2.60546,3.35547 3.72265,7.26562 z m 136.1875,9.50391 -2.04687,6.98828 1.11718,-6.98828 c 0.3711,-3.91406 0.92969,-9.50391 1.11329,-12.57812 0.375,-5.3086 0.375,-5.3086 1.11718,0 0.3711,3.35546 -0.1875,8.94531 -1.30078,12.57812 z m 9.11328,3.91406 c -1.11328,7.26563 -4.83593,17.04688 -8.55468,23.19532 -7.07032,11.73828 -7.07032,11.73828 1.67187,-20.40235 6.51172,-24.3125 10.79297,-25.99219 6.88281,-2.79297 z m -215.625,-10.0625 c 0,2.51563 1.67188,10.0625 3.71875,16.76953 3.90625,12.85547 1.67578,13.69141 -2.60546,1.11719 -3.71875,-10.89844 -5.76563,-26.83203 -3.16016,-24.59375 1.11719,1.11719 2.04687,4.19141 2.04687,6.70703 z m 70.13672,7.82422 c 3.91016,3.91406 8.5586,10.89844 10.42188,15.3711 l 3.53515,8.10546 -5.21093,2.79297 c -6.69922,3.91407 -9.30079,2.23828 -13.76954,-8.9414 -3.16015,-8.10547 -5.20703,-24.59375 -2.78906,-24.59375 0.3711,0 3.90625,3.35547 7.8125,7.26562 z m 62.69922,3.07422 c -0.55859,4.47266 -1.85937,11.73828 -2.97656,16.76953 l -1.67578,8.94141 -6.51172,-6.14844 C 242.97656,264.10547 240,260.75 240,259.91406 c 0.1875,-1.39844 16.92969,-19.5664 18.23437,-19.5664 0.1836,0 0,3.35546 -0.74609,7.54687 z m 66.97656,8.38672 c -2.04687,13.41406 -3.90625,18.16406 -10.23047,26.54687 -4.28125,5.58985 -10.79296,10.90235 -14.32812,12.01954 -7.44141,1.95703 -10.23047,-0.5586 -5.20703,-4.75 6.13672,-5.3125 17.67187,-22.08204 24.55469,-36.05469 3.72265,-7.54688 6.88671,-13.69531 7.25781,-13.69531 0.1875,0 -0.7461,7.26953 -2.04688,15.93359 z m -97.48828,-2.23828 c 0,1.11719 -2.78906,3.35547 -5.95312,5.3125 -5.58203,3.07422 -6.32422,2.79297 -9.30078,-2.79688 -3.16407,-6.42578 -3.16407,-6.42578 3.71875,-7.82422 6.32421,-1.39843 11.53515,0.83594 11.53515,5.3086 z m -44.65234,21.80078 c 0,1.95703 -0.74219,3.63281 -1.67188,3.63281 -2.23437,0 -9.48828,-17.60937 -9.48828,-22.63672 0,-4.47265 10.97656,14.25 11.16016,19.00391 z m 7.4414,-5.03125 4.28125,9.5 -4.83593,-5.02734 c -2.79297,-2.51563 -5.02344,-7.54688 -5.02344,-10.6211 0,-3.07422 0.18359,-5.03125 0.55859,-4.47265 0.3711,0.55859 2.60157,5.3125 5.01953,10.62109 z m 37.21094,-9.50391 c 0,0.5586 -1.85937,2.51563 -4.09375,4.19532 -4.09375,3.07421 -4.09375,2.79296 -0.74219,-1.1211 3.90625,-4.75 4.83594,-5.30859 4.83594,-3.07422 z m 19.53516,17.60938 c 3.16406,2.79297 2.41797,3.07422 -5.02344,3.35156 -4.65234,0 -9.85937,-0.83594 -11.53516,-1.67578 -2.60546,-1.39844 -2.60546,-2.51563 0.1875,-9.78125 l 3.16016,-8.10547 4.83984,6.70703 c 2.60547,3.63281 6.32422,7.82422 8.3711,9.50391 z m -96.5586,-3.07422 c -1.67578,2.79297 -8.55859,-2.51563 -8.55859,-6.42969 0,-3.35156 0.74609,-3.35156 4.65234,0.5586 2.60547,2.51562 4.46485,5.3125 3.90625,5.87109 z m 64,3.63281 c 0,1.39844 -2.23046,2.79297 -5.02343,2.51563 -4.65235,0 -4.83594,-0.28125 -1.48828,-2.51563 5.02343,-3.35547 6.51171,-3.35547 6.51171,0 z m -46.88281,4.47266 c 5.76563,1.67578 5.02344,5.58984 -1.85937,9.22265 -5.21094,2.79297 -6.69922,2.23438 -13.02344,-3.91406 -3.91016,-3.91406 -7.07031,-7.54687 -7.07031,-8.10547 0,-1.11718 15.6289,0.83985 21.95312,2.79688 z m 151.07031,2.51172 c -1.30468,2.23828 -3.16406,4.19531 -4.28125,4.19531 -0.92968,0 -0.37109,-2.51563 1.48829,-5.58984 3.90625,-6.42969 6.51171,-5.3125 2.79296,1.39453 z m -172.09375,4.19531 c 5.95313,9.5 5.95313,9.78125 -2.23437,12.57422 -6.13672,1.95703 -6.13672,1.95703 -6.13672,-9.5 0,-6.42969 0.74219,-11.46094 1.48828,-11.46094 0.92969,0 3.90625,3.63281 6.88281,8.38672 z m 53.02344,-1.39844 4.65235,3.63281 -5.02344,1.95704 c -6.32813,2.51562 -10.79297,0.27734 -10.79297,-5.58985 0,-5.30859 5.02344,-5.30859 11.16406,0 z m 32.1836,0.5586 c -1.30079,0.55859 -3.53125,0.55859 -4.64844,0 -1.30469,-0.83985 -0.3711,-1.39844 2.23047,-1.39844 2.60547,0 3.53515,0.55859 2.41797,1.39844 z m 33.67578,-0.27735 c 5.02343,2.79297 1.30468,6.70703 -6.51172,6.70703 -8.1836,0 -9.85938,-4.7539 -2.04688,-6.42968 2.79297,-0.5586 5.21094,-1.39844 5.39453,-1.67579 0.1875,0 1.48829,0.5586 3.16407,1.39844 z m -79.07032,5.02735 c 1.67579,3.07421 1.48829,4.19531 -0.92968,5.58984 -3.71875,2.23828 -6.32422,-0.27734 -6.32422,-5.58984 0,-5.02735 4.46484,-5.02735 7.2539,0 z m -10.97656,2.79687 c 0,2.51563 -1.30078,3.35156 -3.90625,2.51563 -2.97656,-1.11719 -3.16406,-2.23829 -1.30078,-3.91407 3.53516,-3.63281 5.20703,-3.07422 5.20703,1.39844 z m 35.35156,-2.51562 c 0,2.51562 -10.79296,9.5 -11.91015,7.82421 -0.74219,-1.11718 1.11719,-3.35156 3.91015,-5.30859 5.76563,-3.91406 8,-4.47266 8,-2.51562 z m 29.39454,6.14843 c -2.60547,3.91407 -8.92969,2.51563 -8.92969,-1.95703 0,-2.79297 7.4414,-5.03125 9.85937,-3.35156 0.92969,0.55859 0.5586,3.07422 -0.92968,5.30859 z m -11.90625,0.5586 c 1.85937,3.07422 2.78906,6.70703 2.23046,8.38281 -2.23046,5.3125 -11.90625,6.14844 -18.97656,1.67969 l -7.07031,-4.47266 5.39453,-5.30859 c 7.07031,-6.98828 14.32813,-6.98828 18.42188,-0.28125 z m 86.69531,-3.63282 c 0,3.63282 -11.53516,26.26954 -16,31.58204 -5.58203,6.70703 -18.78906,13.41406 -20.65235,10.61718 -0.55468,-1.11718 -0.18359,-6.98437 1.11719,-13.13281 2.04688,-10.0625 3.53516,-12.29687 12.83985,-18.72656 15.625,-10.89844 22.69531,-14.25391 22.69531,-10.33985 z m -60.65235,3.63282 c 2.98047,1.67578 2.42188,2.79297 -4.27734,6.70703 -9.11719,5.58984 -13.02344,3.91406 -8.37109,-3.91406 3.34765,-5.58594 6.69531,-6.42579 12.64843,-2.79297 z m 25.30469,4.1914 c 0,7.54688 -1.48828,8.94532 -14.14062,11.46094 l -9.11719,1.95313 5.39844,-8.38282 c 3.16015,-5.03125 7.8125,-9.22265 11.16015,-9.78125 3.16407,-0.55859 5.95313,-1.39843 6.32813,-1.39843 0.18359,-0.27735 0.37109,2.51562 0.37109,6.14843 z m 16.74219,-5.30859 c 0,1.39844 -10.23047,9.78125 -12.08984,9.78125 -0.5586,0 -0.9336,-2.51563 -0.9336,-5.58984 0,-4.47266 1.30469,-5.58985 6.51172,-5.58985 3.53516,0 6.51172,0.5586 6.51172,1.39844 z m -122.41797,11.45703 c 4.83984,1.11719 10.60547,4.75 14.51172,9.78125 l 6.32812,8.10547 h -15.6289 c -16.3711,-0.27734 -39.07031,-8.94141 -40.3711,-15.92969 -0.55859,-1.95703 2.97657,-5.03125 8.1836,-7.26562 7.6289,-3.35547 9.67578,-3.35547 13.95312,0 2.79297,1.95703 8.7461,4.47265 13.02344,5.30859 z m 143.44141,-4.47266 c -0.5586,2.79688 -2.23047,6.98829 -3.90625,8.94532 -2.41797,3.07422 -2.23047,2.23437 0.37109,-5.58985 3.53516,-10.0625 5.02344,-11.45703 3.53516,-3.35547 z m -139.53516,-0.83593 c -1.30078,0.55859 -3.53516,0.55859 -4.64844,0 -1.30468,-0.83985 -0.375,-1.39844 2.23047,-1.39844 2.60547,0 3.53516,0.55859 2.41797,1.39844 z m 13.02344,0 c -1.30078,0.55859 -3.53516,0.55859 -4.64844,0 -1.30469,-0.83985 -0.375,-1.39844 2.23047,-1.39844 2.60547,0 3.53516,0.55859 2.41797,1.39844 z m -78.69531,6.42578 c 1.85937,1.95703 -1.48828,2.79687 -11.16407,2.79687 -9.675778,0 -13.023434,-0.83984 -11.164059,-2.79687 1.488281,-1.39453 6.511719,-2.79297 11.164059,-2.79297 4.65235,0 9.67579,1.39844 11.16407,2.79297 z m 103.2539,8.66406 7.44141,0.28125 -10.23047,3.91016 c -9.85938,3.63672 -10.41797,3.35547 -17.67578,-3.63282 -6.32422,-6.14843 -6.88281,-7.54296 -3.90625,-9.22265 2.04687,-0.83594 6.32422,0.55859 10.23437,3.35547 3.53125,2.79297 9.85938,5.03125 14.13672,5.30859 z m -8.37109,-8.66406 c 1.48828,1.39844 2.04687,2.79687 0.92969,2.79687 -0.92969,0 -3.16407,-1.39843 -4.65235,-2.79687 -1.48828,-1.39453 -1.85937,-2.79297 -0.92969,-2.79297 1.11719,0 3.16407,1.39844 4.65235,2.79297 z m 46.51172,2.79687 c -5.02344,5.86719 -7.44141,6.98438 -7.44141,3.35157 0,-2.51563 7.07031,-8.38282 10.23047,-8.66407 1.11719,0 -0.18359,2.23828 -2.78906,5.3125 z m -17.67578,0 c -0.5586,1.39844 -2.60157,2.79297 -4.27735,2.79297 -2.79297,0 -2.79297,-0.55859 -0.37109,-2.79297 3.71875,-3.63281 6.13672,-3.63281 4.64844,0 z m 40.375,11.45703 c -0.7461,5.3125 -2.97657,9.78125 -4.65235,10.33985 -3.90625,1.12109 -21.02344,-11.45703 -17.85937,-13.13281 3.90625,-1.95704 23.0664,-7.54688 23.625,-6.98829 0.375,0.28125 -0.1836,4.75 -1.11328,9.78125 z m -38.51172,1.11719 c -2.97657,2.23828 -9.67578,3.91406 -14.88672,3.91406 l -9.30078,-0.28125 8.37109,-3.63281 c 4.65234,-1.95312 11.35156,-3.63281 14.88281,-3.63281 h 6.51172 z m 75.34765,-1.95312 c 0,1.39453 -2.60547,8.38281 -5.76953,15.37109 -6.13672,13.97266 -16.55469,24.59375 -28.08984,29.34375 -8,3.35156 -8.1875,2.51563 -5.21094,-13.97266 1.67578,-8.94531 2.78906,-10.34375 8.92969,-12.01953 3.90625,-0.83984 12.09375,-5.86718 18.04687,-11.17968 12.65235,-10.89844 12.09375,-10.61719 12.09375,-7.54297 z m -134.88281,21.51953 c 15.07031,6.14844 55.44141,8.66406 76.08984,4.46875 8.9336,-1.95703 16.7461,-3.07422 17.11719,-2.51563 0.1875,0.5586 -0.37109,6.42969 -1.48828,12.85938 -1.85937,11.73437 -2.04687,11.73437 -10.60547,11.73437 -10.97656,0 -50.41797,-9.78125 -69.95312,-17.04687 -13.58203,-5.3086 -45.58203,-25.4336 -45.58203,-28.78516 0,-0.55859 5.21093,2.23438 11.72265,6.70703 6.32422,4.19141 16.7461,10.0625 22.69922,12.57813 z m 79.625,-12.85938 c 5.76953,4.75391 10.04688,8.94532 9.11719,9.78516 -0.74219,0.55859 -11.16406,2.51172 -23.07031,4.19141 -25.11329,3.63281 -50.41797,0.55859 -67.53516,-7.82813 L 164.65234,335.65234 200,336.21094 c 30.32422,0.55859 36.09375,0 40.92969,-4.19532 3.16406,-2.79296 5.58203,-4.75 5.58203,-4.75 0,-0.27734 4.83594,3.35547 10.78906,7.82422 z m -84.27734,20.96094 c 17.85937,8.94531 47.07031,17.88672 72.74218,22.08203 l 20.28125,3.35156 -3.90625,12.01954 c -2.23437,6.70703 -7.07031,15.37109 -10.60546,19.5625 -5.76954,6.70703 -8.1875,7.54687 -20.65235,7.54687 -13.76562,0 -15.07031,-0.5625 -39.4414,-18.72656 -27.53516,-20.1211 -41.11719,-36.61328 -48.1875,-57.85156 l -4.08985,-12.01954 10.04688,8.38672 c 5.39453,4.75 16.18359,11.73828 23.8125,15.64844 z m 0,0"
       id="path1" />
  </g>
</svg>
