<?xml version="1.0" encoding="UTF-8" standalone="no"?>
<svg
   width="512"
   height="512"
   viewBox="0 0 512 512"
   version="1.1"
   id="svg1"
   xmlns="http://www.w3.org/2000/svg"
   xmlns:svg="http://www.w3.org/2000/svg">
  <defs
     id="defs1" />
  <g
     id="surface1">
    <rect
       style="fill:#ffffff;fill-opacity:1;fill-rule:evenodd;stroke:#ffffff;stroke-width:7.80472;stroke-linecap:round;stroke-linejoin:round;stroke-opacity:0"
       id="rect1"
       width="502.8244"
       height="504.04776"
       x="4.8936677"
       y="4.8936677"
       ry="240.40144"
       rx="251.4122" />
    <path
       style="fill:#000000;fill-opacity:1;fill-rule:nonzero;stroke:none;stroke-width:1.43062"
       d="m 218.88842,33.817309 c -39.2841,9.507583 -89.91359,37.667395 -111.73675,62.172434 -12.512271,13.530407 -28.519169,46.812047 -32.30096,65.827227 -0.873662,5.48474 -5.235846,12.79944 -9.598015,16.45423 -16.00691,12.80458 -39.577392,43.88822 -46.2673,60.71051 -13.0987825,32.91363 -7.856824,72.77902 11.925754,89.23328 -11.8557,-0.13067 -15.46029,-5.27474 31.720561,16.82228 12.219,2.92894 21.529885,2.92894 36.082719,0 24.444151,-5.11672 29.099591,-1.82484 41.318611,29.98977 10.47779,28.15982 29.67997,51.20292 59.35996,72.04806 24.44412,16.82228 59.6532,34.37553 76.24051,38.03031 25.89209,5.12183 51.20988,-13.16238 61.39443,-44.25114 3.78177,-11.70047 7.27642,-16.82229 12.51225,-18.28421 31.13406,-8.40859 53.83086,-30.35272 64.30867,-62.17244 6.10949,-18.28418 12.75409,-30.4952 27.59408,-37.44185 l 55.01838,-52.52099 c -9.60415,4.02284 -73.00832,61.80302 -73.30157,61.44011 -2.90812,-3.29188 6.40275,-27.79691 13.09267,-34.01262 4.36828,-4.02282 11.6386,-15.7284 16.29405,-26.32986 8.44333,-19.75123 8.73048,-30.35781 3.20138,-70.21808 -1.45407,-9.50758 0,-19.75125 4.36829,-35.84257 9.89129,-34.00751 4.65545,-59.24348 -15.4265,-72.042927 -5.23584,-3.65991 -21.52989,-7.682752 -36.9503,-9.5076 C 392.6061,82.091292 376.5992,80.26134 372.23701,79.53037 368.16196,78.799412 359.72473,73.314656 353.32199,67.461881 326.55012,40.763976 298.03707,29.794476 259.62661,30.1574 c -15.42039,0.368035 -33.75502,1.829956 -40.73819,3.659909 z m 101.26507,16.091325 18.3285,10.969502 -24.15087,-0.730963 C 286.39848,59.053294 270.39157,55.393385 247.69474,44.423884 l -16.00079,-7.682738 34.91582,1.461918 c 31.4273,1.098995 36.66314,2.197988 53.54372,11.70557 z m -71.00467,2.192878 c 1.46015,1.829955 -1.45408,3.291873 -7.27033,3.291873 -30.55364,0.368033 -66.34311,21.213161 -92.24131,53.758745 -10.47781,12.79943 -19.49545,22.67507 -20.36909,21.57605 -3.20139,-4.02281 24.15087,-43.883079 40.15167,-58.875435 14.55283,-13.535527 26.47859,-19.751233 47.72135,-24.873058 7.85683,-2.192878 28.51917,1.467029 32.00771,5.121825 z m -89.32709,20.114156 c -7.27644,6.951789 -18.91504,22.675075 -25.8982,35.111602 -6.98317,12.06851 -13.96633,23.76896 -15.71364,25.59891 -7.85683,8.77663 -34.921946,27.79178 -35.789505,24.86794 -2.040571,-7.31469 15.713654,-41.69022 29.386745,-57.05061 12.80552,-14.266479 50.92272,-41.690216 58.19915,-41.690216 1.74121,0 -2.91424,5.847668 -10.18455,13.162374 z m 106.78804,-8.408584 c 4.65545,4.385758 3.20138,5.484753 -13.38592,9.507572 -32.58812,8.045667 -70.99856,25.598917 -89.62034,40.591244 -9.89741,8.04566 -18.91502,14.62941 -19.78869,14.62941 -4.36218,0 18.91503,-27.06083 32.5881,-38.398357 18.04139,-14.629411 36.9564,-23.774068 57.03224,-27.428862 23.57046,-4.022829 27.35838,-4.022829 33.17461,1.098993 z m 18.91503,0.362928 c 0,4.02283 -5.52911,5.484737 -7.27642,2.192873 -0.87366,-1.824838 0.29326,-3.654794 2.62097,-3.654794 2.61488,0 4.65545,0.730961 4.65545,1.461921 z m 53.25044,8.045656 c 9.01765,5.852796 10.4717,12.436535 2.90813,12.436535 -6.40274,0 -29.97322,-15.360366 -29.97322,-19.383207 0,-4.022829 16.5873,0.362928 27.06509,6.946672 z m -23.57047,9.144655 c 14.54673,4.753808 16.29407,9.87563 4.07505,12.79946 -10.77106,2.19287 -30.8469,-7.314682 -33.17461,-15.728395 -1.16082,-4.753798 6.40275,-4.022839 29.09956,2.928935 z m -52.95719,-0.368025 c -2.32771,1.829953 -13.09876,7.682753 -23.57047,12.799445 -18.62177,9.144667 -38.99087,28.527867 -45.39363,43.888227 -2.62098,5.12182 -4.07503,5.85279 -7.27641,2.92384 -2.03448,-2.19288 -9.31089,-6.21569 -16.00079,-8.77661 -9.02375,-3.29189 -11.64473,-5.48477 -9.60415,-8.77664 4.9487,-7.31471 43.93957,-28.527857 68.37759,-36.936429 25.31779,-8.776626 41.03143,-11.337547 33.46786,-5.121833 z m 20.36909,4.022818 c 0,1.829985 -3.49462,3.291885 -7.85681,3.291885 -7.85684,-0.36292 -7.85684,-0.36292 -2.62098,-5.48475 5.52909,-5.121833 10.47779,-4.390863 10.47779,2.192865 z m 5.81625,12.436547 c 2.90813,4.385757 2.04058,5.852767 -4.65543,9.139537 -13.09268,6.22082 -65.76274,40.59635 -73.61954,47.91105 -6.40277,6.58376 -11.92576,6.21571 -11.92576,-0.36803 0,-6.94667 16.29404,-26.69278 36.66314,-43.88311 18.90891,-15.728407 24.15087,-18.284207 36.07664,-18.284207 8.73048,0 15.13324,1.82484 17.46095,5.48476 z m 82.63717,3.654797 c 4.07505,7.68274 4.07505,9.14465 0.58652,9.14465 -3.78178,0 -10.47781,-10.23852 -10.47781,-16.091327 0,-5.484732 5.52912,-1.46192 9.89129,6.946677 z m 44.5261,1.82995 c 20.94947,19.3832 41.31856,67.65718 33.1685,77.8957 -2.32775,2.92897 -3.2014,1.82996 -3.2014,-4.02281 0,-12.06851 -25.89818,-42.42118 -45.68076,-53.75874 -10.77106,-6.21569 -18.91505,-13.89843 -22.11641,-20.4822 l -4.65543,-10.601457 h 15.13323 c 12.51227,0 17.7481,2.19288 27.35227,10.969507 z m 22.40355,-5.852787 c 18.32851,9.507577 25.02451,27.428857 20.36908,56.687677 -2.04057,12.06849 -6.98317,15.72328 -6.98317,4.75379 0,-10.60658 -16.5873,-43.15215 -28.2259,-55.22066 L 412.10154,91.966903 h 8.15009 c 4.36217,0 12.21898,2.19288 17.74811,5.11672 z m -98.64408,2.198 c 0.87366,1.824837 -0.29326,3.654787 -2.90813,3.654787 -2.62099,0 -3.78178,-1.82995 -2.91423,-3.654787 0.87366,-2.198 2.33382,-3.65991 2.91423,-3.65991 0.58041,0 2.03446,1.46191 2.90813,3.65991 z m 17.46096,0.36291 c 3.48851,6.946667 -1.45406,8.413697 -6.40277,2.192887 -4.65544,-5.847677 -4.65544,-6.215707 -0.29325,-6.215707 2.62098,0 5.82238,1.82995 6.69602,4.02282 z M 227.0385,107.69019 c -0.58652,0.73097 -8.15008,9.50758 -16.88055,19.3832 -11.63861,13.1675 -14.2596,14.99233 -10.47171,7.67763 4.65546,-8.77661 23.27723,-28.15982 27.35226,-28.15982 0.58042,0 0.58042,0.36803 0,1.09899 z m 110.56983,18.65224 6.98316,9.50759 h -9.89128 c -5.52911,0 -12.51227,-2.56093 -15.42039,-5.48475 -3.20139,-2.92383 -8.15008,-5.48475 -11.35146,-5.48475 -8.43723,0 -4.07504,-8.77662 5.52911,-11.33753 9.89738,-2.56091 14.83998,0 24.15086,12.79944 z m 7.56968,-13.89844 c 4.06893,2.19288 13.09268,19.38321 13.09268,25.23598 0,5.12182 -6.69603,0.73096 -14.55287,-10.23853 -11.63858,-16.09134 -11.05207,-20.85024 1.46019,-14.99745 z m -64.6019,14.99745 c -8.43723,5.11672 -24.15089,19.3832 -34.91583,31.45168 -16.58731,19.37808 -18.62178,20.84512 -13.67919,10.23855 7.56968,-16.82229 30.55366,-42.05828 42.4855,-46.81206 17.74812,-7.31469 21.24276,-4.39087 6.10952,5.12183 z m 104.75357,19.3832 c 2.91424,14.99233 1.45405,16.82228 -7.85682,8.40858 -5.23585,-4.75379 -7.2703,-9.87562 -7.56356,-19.01516 0,-11.70558 0.29326,-12.0685 6.40274,-6.95178 3.48855,2.92894 7.56358,10.97461 9.01764,17.55836 z m 24.15087,-10.24367 c 15.13325,13.1675 16.88057,18.28932 6.40276,21.57609 -5.23584,1.46701 -9.01762,-1.46191 -17.45485,-12.79946 -5.82236,-8.4086 -10.77105,-16.09132 -11.0582,-17.91616 0,-5.8528 8.72437,-2.198 22.11029,9.13953 z m -109.98942,4.39088 c 0.87367,6.94666 -1.16082,13.5304 -6.10952,20.11416 -12.51226,16.82228 -17.7481,33.64456 -17.7481,57.78156 -0.29325,12.79945 -1.46018,23.038 -2.62098,23.038 -3.20138,0 -39.86452,-37.29938 -39.86452,-40.22832 0,-9.5076 56.15857,-74.60386 61.98094,-72.04295 2.03446,0.73097 3.78179,5.8528 4.36218,11.33755 z m 16.5873,-5.48475 c 0.87368,2.19287 -0.87366,5.48475 -4.07504,7.31469 -4.36218,3.28677 -5.82235,2.55581 -6.98315,-3.29187 -1.16692,-5.48986 0,-7.3147 3.78179,-7.3147 3.20136,0 6.10949,1.46193 7.2764,3.29188 z m -139.08899,6.21571 c 6.39665,4.02282 9.31088,8.04566 8.43723,11.33753 -1.16691,2.92384 -1.74732,6.21571 -1.74732,6.94668 0,0.73094 -3.48854,1.4619 -7.85682,1.4619 -7.56359,0 -16.29406,2.92896 -39.28413,12.79946 -12.21902,5.48986 -12.51226,5.12184 -7.85682,-6.57864 9.31699,-22.67505 17.46096,-31.81972 27.6455,-31.81972 5.82237,0 15.13324,2.56091 20.66236,5.85279 z m -48.59501,-0.36805 c 0,1.46703 -1.74732,6.58375 -4.07505,12.0685 -6.40276,15.72841 -16.29405,65.09627 -16.29405,81.55564 0,17.92126 8.73049,40.22832 18.91503,48.642 6.98317,5.84769 7.27032,7.31471 5.52912,25.23088 -1.16693,10.60657 -2.32775,19.75123 -3.20139,20.48219 -2.04058,3.29188 -21.82315,-23.77406 -27.93878,-38.03544 -5.235871,-12.0685 -6.396661,-20.47707 -6.396661,-49.37296 0.28716,-36.20549 4.65545,-54.85263 22.110321,-90.32714 5.24196,-10.60658 11.35146,-16.09133 11.35146,-10.24367 z m 119.30031,29.25883 c -11.92575,14.99233 -22.40357,27.42886 -22.98396,27.42886 -0.87366,0 8.14397,-12.43653 20.07585,-27.42886 11.93187,-14.99233 22.40356,-27.42886 22.99004,-27.42886 0.86756,0 -8.15006,12.43653 -20.08193,27.42886 z m 104.17319,-17.55325 c 6.1095,10.60658 4.07505,20.84511 -5.52913,28.15982 -4.94869,3.6548 -9.31086,5.85278 -9.60413,5.11672 -0.58038,-0.36293 -1.74121,-10.60145 -2.61486,-22.30705 l -1.74732,-21.57607 7.85683,2.56093 c 4.36217,1.09387 9.60413,4.75378 11.63861,8.04565 z m -251.40616,24.49993 c -8.150075,21.21314 -11.058216,34.74355 -12.51228,56.31963 l -2.040561,28.15982 -3.488544,-14.6243 c -4.94869,-19.75122 -7.569675,-53.76384 -5.241959,-65.46429 1.16692,-5.85279 7.569675,-14.26139 16.880573,-22.30706 8.437241,-6.95177 15.420401,-12.06847 16.000801,-11.33754 0.58652,0.73097 -3.78178,13.89335 -9.59803,29.25374 z m 228.41608,-17.18523 c 4.94869,22.30703 4.07503,32.54558 -3.78178,39.12933 -3.78179,2.92383 -11.34534,13.16748 -16.58731,22.30704 -5.23585,9.14465 -9.59802,16.09131 -10.17845,15.36035 -0.29324,-0.36291 1.16082,-9.8705 3.48854,-20.84511 2.32773,-10.96951 4.07505,-29.25371 4.07505,-40.59122 0,-17.55837 0.87364,-20.84514 6.6899,-24.50504 10.77105,-6.58375 13.38593,-5.12183 16.29405,9.14465 z m 70.13102,-2.19798 c 2.61486,5.85277 2.03446,6.95176 -2.91424,6.95176 -4.36219,0 -5.81624,-2.56088 -5.81624,-9.50756 0,-9.87563 4.07503,-9.14468 8.73048,2.5558 z m -36.37599,-4.38576 c 0.87366,1.82996 0.29324,4.38576 -1.16082,5.48475 -1.45405,1.09899 -3.20137,-0.36293 -4.36828,-3.29187 -1.74122,-5.85279 2.62095,-7.67765 5.5291,-2.19288 z m -146.94584,9.50756 c -3.78178,5.12185 -7.56357,8.04569 -8.43723,6.94669 -0.87365,-1.09388 1.45406,-5.11673 5.23585,-9.13954 9.60415,-9.87562 11.35146,-8.77663 3.20138,2.19285 z m 11.93188,1.46193 c -3.49465,5.8528 -7.27644,14.26648 -8.7305,19.02029 -2.32772,7.67762 -2.90812,8.04567 -4.65542,2.19287 -1.45408,-4.02282 0.58039,-10.60658 5.52908,-19.01515 9.31089,-15.36037 16.29406,-17.19033 7.85684,-2.19801 z m 148.11272,-1.46193 c 2.90813,4.39088 2.90813,5.48477 -1.16691,5.48477 -2.62099,0 -4.65543,-2.5609 -4.65543,-5.48477 0,-2.92382 0.5804,-5.48474 1.16079,-5.48474 0.58652,0 2.62099,2.56092 4.66155,5.48474 z m -75.0736,26.32988 c -2.91422,26.33499 -10.18454,52.29683 -14.55283,52.29683 -4.65545,0 -6.40276,-21.57609 -3.20138,-39.49737 2.62097,-15.72328 16.00691,-43.51508 19.20829,-39.86026 0.58039,1.09898 0,13.16749 -1.45408,27.0608 z M 435.0916,169.49458 c 6.98319,12.43655 5.81625,13.16749 -8.15007,5.12183 -8.43724,-4.75379 -11.93187,-8.41368 -9.60414,-10.23853 6.40275,-5.12183 13.38592,-2.92896 17.75421,5.1167 z m -255.19405,1.46703 c -0.87365,1.09389 -3.49463,1.46194 -5.52909,0.36294 -2.32772,-1.099 -1.45406,-2.19288 1.74731,-2.19288 3.20139,-0.36804 4.94259,0.73095 3.78178,1.82994 z m 205.7254,4.75382 c 0.87366,1.82484 -1.45408,5.84765 -5.52911,9.13953 -8.73049,7.31469 -9.31089,7.31469 -9.31089,-0.73096 0,-9.87562 11.05821,-16.09132 14.84,-8.40857 z m 25.02452,28.89076 c 0,28.15982 -5.23584,46.44402 -18.04137,63.99727 l -11.35146,15.36036 7.27642,-16.45423 c 10.47781,-24.13701 14.25958,-49.37298 10.47781,-71.31709 -2.62098,-13.89846 -2.32772,-18.28421 0.58041,-20.47707 6.40274,-5.12184 11.05819,7.67761 11.05819,28.89076 z M 137.41206,188.87778 c -3.20138,5.48477 -6.68991,15.72841 -7.85683,23.40604 -3.20137,22.67508 -6.10948,24.50503 -8.43723,5.48475 -2.03445,-17.18521 -1.74731,-18.2842 8.73049,-29.98467 12.21902,-13.89845 16.87445,-13.16749 7.56357,1.09388 z m 39.86451,-5.48474 c 0.29327,2.92384 -4.65543,14.62941 -11.34534,25.59889 -6.69602,10.97464 -14.83999,27.06595 -18.04138,35.47455 -6.696,17.19032 -8.15007,18.2893 -13.67917,10.24364 -8.14398,-12.06848 3.78789,-65.10138 16.5873,-74.60893 7.56357,-5.85281 25.31779,-3.29189 26.47859,3.29185 z m 256.06771,2.19288 c 3.48854,2.92894 6.40276,8.77663 6.40276,12.79945 0,12.80456 -18.04137,51.20292 -34.33541,73.50997 -15.4265,20.8451 -34.34154,38.40345 -37.24967,34.74356 -0.87365,-1.09899 3.49465,-6.21572 9.89742,-11.33754 30.26037,-23.76895 44.8071,-63.2663 38.6976,-103.86266 -2.32773,-14.6294 -2.03447,-15.36036 3.78178,-13.1675 3.20138,1.09902 9.02374,4.39087 12.80552,7.31472 z m -354.418541,69.1242 c 3.201398,12.0685 12.219025,34.37553 20.36912,49.36786 7.856811,14.99745 13.966331,27.42885 13.679171,27.79691 -0.29325,0.36291 -8.15007,-1.09898 -17.754221,-2.92894 -11.931865,-2.5558 -21.823164,-2.5558 -32.881365,0.36802 -14.546729,3.65479 -17.167713,3.29188 -25.898188,-3.29188 -10.184549,-8.04566 -21.529903,-33.28165 -21.529903,-48.27398 0,-25.59891 15.133247,-56.68767 39.284124,-80.82464 l 14.546746,-14.62943 2.327716,25.236 c 1.1669,13.89843 4.655443,35.1116 7.8568,47.18008 z M 196.48487,186.31688 c 1.74732,4.02283 -7.56968,37.30448 -10.4778,37.30448 -3.78178,0 -2.62098,-31.08365 1.16691,-35.83746 4.06894,-5.12183 7.27033,-5.48986 9.31089,-1.46702 z m 153.92898,8.41369 c -2.9081,6.21571 -7.56355,13.53044 -10.18453,16.82228 -4.94869,5.48475 -5.23586,5.12183 -5.23586,-3.65479 0,-5.85279 2.90811,-12.0685 8.14397,-16.82228 11.05822,-10.60658 13.38594,-9.5127 7.27642,3.65479 z m 15.71365,0.36805 c -0.87366,2.92383 -1.74733,1.82485 -1.74733,-2.198 -0.29324,-4.02284 0.58043,-6.2157 1.45409,-4.75379 0.87366,1.099 1.1669,4.39088 0.29324,6.95179 z m -155.09589,1.09388 c 3.78178,4.75378 3.78178,6.95179 0,18.2842 -2.32774,6.95177 -4.07504,18.65224 -4.3622,26.33497 -0.29325,7.67764 -1.16692,17.92128 -2.32771,22.30704 -1.74733,8.4137 -2.04058,8.04567 -8.44335,-6.2157 -4.36219,-9.50759 -6.1095,-17.9213 -4.94259,-23.40604 2.03447,-9.14465 13.67306,-42.78921 14.84,-42.78921 0.28715,0 2.61486,2.56088 5.23585,5.48474 z m 173.42442,0.73097 c -0.28716,16.82228 -17.45487,91.06319 -22.40356,95.45406 -7.27643,6.58375 -7.56358,1.46192 -0.87367,-23.0431 3.49465,-12.06851 6.69603,-31.81462 7.85684,-43.88312 1.45406,-20.11417 6.98315,-34.74355 13.09265,-34.74355 1.16693,0 2.32774,2.92382 2.32774,6.21571 z m 8.44332,33.28162 c -2.91422,16.8223 -13.67917,46.44404 -16.0069,43.88312 -0.58041,-1.09388 2.32773,-20.47708 6.68992,-43.51508 7.27643,-38.03542 8.15007,-40.59634 9.89738,-28.89588 1.16081,6.95178 0.87367,20.11416 -0.5804,28.52784 z m -209.22,38.39837 c 1.74732,12.06851 2.62097,22.31215 1.74732,23.40604 -2.32773,2.92894 -26.77185,-9.13956 -34.33543,-17.18521 -6.40275,-6.58374 -6.69602,-6.58374 -1.45406,-20.48219 2.90811,-8.04567 9.59803,-21.94413 14.54673,-31.81461 l 9.31088,-17.19035 3.49465,20.84513 c 1.7412,11.70045 4.65543,30.72074 6.68991,42.42119 z m 144.6181,-47.17499 c -1.45406,4.38574 -19.49542,14.99233 -19.49542,11.33754 0,-0.73095 4.36827,-7.68272 9.60413,-14.99744 7.27642,-10.96949 9.60413,-12.43143 10.18455,-7.31471 0.58039,3.29189 0.28714,8.41371 -0.29326,10.97461 z m -79.72904,5.85279 c 7.56356,6.94667 13.67917,14.26136 13.67917,15.7233 0,1.82996 -4.94869,2.5609 -10.77105,1.82996 -9.31089,-1.099 -11.92576,-3.2919 -17.45487,-15.72841 -11.05819,-24.49992 -9.31088,-24.86795 14.54675,-1.82485 z m 109.70228,-9.87561 c 0,12.79944 -10.4778,40.59123 -20.9495,55.22066 -6.40276,9.50756 -12.80552,16.82228 -13.96634,16.82228 -1.46017,0 -0.87365,-6.21571 1.16082,-13.89335 2.03445,-7.31469 4.94871,-20.48218 5.82236,-28.89078 1.74121,-11.70556 4.36218,-17.19031 12.7994,-24.50504 12.51227,-10.60657 15.13326,-11.33753 15.13326,-4.75377 z m 2.62098,29.25881 c -6.40278,33.64456 -13.09878,50.09882 -20.9556,50.09882 -10.76497,0 -11.05822,-3.6548 -1.45408,-16.09131 9.60415,-12.06851 22.40968,-43.15216 22.99007,-55.22066 0,-4.02284 0.87365,-5.12183 1.74733,-2.56092 0.86754,2.56092 -0.29327,13.16749 -2.32772,23.77407 z M 226.74526,233.12894 c 2.03446,5.12184 2.32771,8.41368 0.58039,6.95178 -4.36218,-3.29187 -9.3109,-16.45936 -6.40275,-16.45936 1.46016,0 4.07504,4.39087 5.82236,9.50758 z m 213.00178,12.43652 -3.20138,9.14466 1.74732,-9.14466 c 0.58041,-5.12182 1.45406,-12.43652 1.74121,-16.45935 0.58651,-6.94669 0.58651,-6.94669 1.74732,0 0.5804,4.39086 -0.29326,11.70556 -2.03447,16.45935 z m 14.25348,5.12185 c -1.74122,9.50756 -7.56358,22.30702 -13.37982,30.35268 -11.0582,15.36039 -11.0582,15.36039 2.61488,-26.69789 10.18455,-31.81461 16.88056,-34.01262 10.76494,-3.65479 z m -337.2447,-13.1675 c 0,3.29186 2.61487,13.1675 5.81626,21.94411 6.1095,16.82228 2.62096,17.91617 -4.07506,1.46191 -5.81624,-14.26137 -9.01762,-35.11162 -4.94258,-32.18265 1.74732,1.46191 3.20138,5.48475 3.20138,8.77663 z m 109.69616,10.23853 c 6.11563,5.12182 13.38595,14.26138 16.30018,20.11415 l 5.5291,10.60659 -8.15008,3.65479 c -10.47781,5.12182 -14.54673,2.92897 -21.536,-11.70046 -4.94259,-10.60657 -8.144,-32.18263 -4.36218,-32.18263 0.58039,0 6.10948,4.39086 12.21898,9.50756 z m 98.06369,4.02284 c -0.87366,5.85279 -2.90813,15.36035 -4.65546,21.9441 l -2.62098,11.70046 -10.18453,-8.04565 c -5.23585,-4.38576 -9.89129,-8.77663 -9.89129,-9.8705 0.29325,-1.82995 26.4786,-25.60402 28.51917,-25.60402 0.28715,0 0,4.39086 -1.16691,9.87561 z m 104.75358,10.9746 c -3.20137,17.55324 -6.1095,23.76896 -16.00081,34.73847 -6.69601,7.31469 -16.88055,14.26648 -22.40964,15.72841 -11.63862,2.56091 -16.0008,-0.73097 -8.14399,-6.21572 9.59804,-6.95177 27.63941,-28.8959 38.40434,-47.1801 5.82238,-9.87561 10.77107,-17.92127 11.35146,-17.92127 0.29328,0 -1.1669,9.51269 -3.20136,20.85021 z m -152.47494,-2.92894 c 0,1.46192 -4.36218,4.39087 -9.31087,6.95178 -8.73049,4.02284 -9.89129,3.65479 -14.54675,-3.65991 -4.94869,-8.40859 -4.94869,-8.40859 5.81626,-10.23855 9.89128,-1.82995 18.04136,1.09389 18.04136,6.94668 z m -69.83774,28.52785 c 0,2.56092 -1.16081,4.75379 -2.61487,4.75379 -3.49465,0 -14.84,-23.04309 -14.84,-29.62174 0,-5.85277 17.16771,18.64713 17.45487,24.86795 z m 11.63861,-6.58374 6.69599,12.43142 -7.56355,-6.57863 c -4.3683,-3.29187 -7.85683,-9.87563 -7.85683,-13.89846 0,-4.02283 0.28716,-6.58375 0.87366,-5.85279 0.5804,0.73097 4.06894,6.9518 7.85073,13.89846 z m 58.19913,-12.43652 c 0,0.73096 -2.90811,3.29188 -6.40274,5.48986 -6.40278,4.02283 -6.40278,3.65479 -1.16082,-1.46705 6.10951,-6.21571 7.56356,-6.94665 7.56356,-4.02281 z m 30.55363,23.0431 c 4.94871,3.6548 3.7818,4.02285 -7.85681,4.38575 -7.27642,0 -15.4204,-1.09387 -18.04137,-2.19286 -4.07504,-1.82998 -4.07504,-3.29189 0.29326,-12.79947 l 4.94258,-10.60657 7.56967,8.77662 c 4.07504,4.75378 9.89131,10.23855 13.09267,12.43653 z m -151.02086,-4.02284 c -2.62098,3.65481 -13.38592,-3.29185 -13.38592,-8.41369 0,-4.38576 1.16692,-4.38576 7.27643,0.73097 4.07502,3.29185 6.98317,6.95177 6.10949,7.68272 z m 100.09814,4.75379 c 0,1.82996 -3.48853,3.6548 -7.85681,3.2919 -7.27643,0 -7.56356,-0.36805 -2.32774,-3.2919 7.85684,-4.39086 10.18455,-4.39086 10.18455,0 z m -73.32628,5.8528 c 9.01763,2.19287 7.85682,7.3147 -2.90813,12.06848 -8.15007,3.65479 -10.4778,2.92386 -20.36908,-5.12182 -6.11563,-5.12181 -11.05821,-9.87561 -11.05821,-10.60658 0,-1.46191 24.44413,1.09902 34.33542,3.65992 z m 236.27902,3.28674 c -2.04057,2.92897 -4.94871,5.48989 -6.69601,5.48989 -1.45407,0 -0.58041,-3.29189 2.32771,-7.31473 6.10949,-8.41368 10.18454,-6.95177 4.3683,1.82484 z m -269.16037,5.48989 c 9.31088,12.43141 9.31088,12.79944 -3.49465,16.45424 -9.59803,2.56091 -9.59803,2.56091 -9.59803,-12.43142 0,-8.41371 1.16082,-14.99745 2.32773,-14.99745 1.45405,0 6.1095,4.75378 10.76495,10.97463 z m 82.93042,-1.82997 7.27641,4.7538 -7.85681,2.56092 c -9.89739,3.29185 -16.88057,0.3629 -16.88057,-7.31472 0,-6.94666 7.85683,-6.94666 17.46097,0 z m 50.33622,0.73096 c -2.03447,0.73097 -5.52299,0.73097 -7.27032,0 -2.04058,-1.09899 -0.5804,-1.82996 3.48854,-1.82996 4.07504,0 5.52909,0.73097 3.78178,1.82996 z m 52.67006,-0.36292 c 7.85681,3.65479 2.04056,8.77663 -10.18456,8.77663 -12.79943,0 -15.42039,-6.22083 -3.20139,-8.41371 4.36829,-0.73096 8.15009,-1.82996 8.43724,-2.19288 0.29326,0 2.32772,0.73097 4.94871,1.82996 z m -123.66863,6.57863 c 2.62098,4.02284 2.32773,5.48987 -1.45405,7.31471 -5.81625,2.92895 -9.89129,-0.36293 -9.89129,-7.31471 0,-6.57863 6.98315,-6.57863 11.34534,0 z m -17.1677,3.6599 c 0,3.29188 -2.03448,4.38576 -6.10951,3.29188 -4.65544,-1.46191 -4.94869,-2.92894 -2.03447,-5.12184 5.52911,-4.75378 8.14398,-4.02281 8.14398,1.82996 z m 55.29101,-3.29185 c 0,3.29185 -16.88056,12.43141 -18.62788,10.23852 -1.16079,-1.46191 1.74732,-4.38575 6.11563,-6.94667 9.01761,-5.12181 12.51225,-5.85277 12.51225,-3.29185 z m 45.97403,8.04565 c -4.07504,5.12184 -13.96633,3.29188 -13.96633,-2.56091 0,-3.65479 11.6386,-6.58376 15.4204,-4.38576 1.45406,0.73097 0.87367,4.02284 -1.45407,6.94667 z m -18.62176,0.73096 c 2.90811,4.02282 4.3622,8.77664 3.48852,10.96949 -3.48852,6.95179 -18.62178,8.04567 -29.68,2.198 l -11.05817,-5.85279 8.43723,-6.94667 c 11.05818,-9.14464 22.40966,-9.14464 28.81242,-0.36803 z m 135.59435,-4.7538 c 0,4.7538 -18.04136,34.37553 -25.02453,41.32731 -8.73047,8.77663 -29.38672,17.55325 -32.30096,13.89334 -0.86754,-1.46192 -0.28712,-9.13953 1.74733,-17.18519 3.20137,-13.16749 5.52911,-16.09135 20.08195,-24.50502 24.438,-14.2614 35.49621,-18.65227 35.49621,-13.53044 z m -94.86228,4.7538 c 4.66154,2.19288 3.78789,3.6548 -6.68992,8.77664 -14.25957,7.31469 -20.36909,5.1218 -13.09265,-5.12184 5.23584,-7.30959 10.47168,-8.4086 19.78257,-3.6548 z m 39.57738,5.48475 c 0,9.87562 -2.32771,11.70556 -22.1164,14.99745 l -14.25961,2.5558 8.44335,-10.96951 c 4.9426,-6.58374 12.219,-12.06849 17.45486,-12.79945 4.94869,-0.73096 9.31089,-1.82996 9.89739,-1.82996 0.28715,-0.36292 0.58041,3.29189 0.58041,8.04567 z m 26.18534,-6.94667 c 0,1.82995 -16.00079,12.79946 -18.90893,12.79946 -0.87365,0 -1.46017,-3.29187 -1.46017,-7.31472 0,-5.85277 2.04057,-7.31469 10.18456,-7.31469 5.5291,0 10.18454,0.73095 10.18454,1.82995 z m -191.4658,14.99233 c 7.56968,1.46192 16.58731,6.21571 22.69681,12.79946 l 9.89741,10.60659 h -24.44413 c -25.60494,-0.36295 -61.10728,-11.70049 -63.14175,-20.84513 -0.87366,-2.56092 4.65544,-6.58377 12.79941,-9.50759 11.93187,-4.39086 15.13325,-4.39086 21.82316,0 4.3683,2.56091 13.67918,5.85279 20.36909,6.94667 z m 224.34716,-5.85279 c -0.87366,3.65992 -3.48853,9.14466 -6.10951,11.70559 -3.78177,4.02281 -3.48854,2.92382 0.5804,-7.31472 5.52911,-13.16749 7.85683,-14.99233 5.52911,-4.39087 z m -218.23766,-1.09388 c -2.03446,0.73096 -5.52909,0.73096 -7.2703,0 -2.04058,-1.09899 -0.58651,-1.82995 3.48853,-1.82995 4.07504,0 5.52909,0.73096 3.78177,1.82995 z m 20.3691,0 c -2.03446,0.73096 -5.52911,0.73096 -7.27032,0 -2.04056,-1.09899 -0.5865,-1.82995 3.48853,-1.82995 4.07504,0 5.52909,0.73096 3.78179,1.82995 z M 96.386719,336.9916 c 2.90814,2.56092 -2.32772,3.65991 -17.46098,3.65991 -15.133233,0 -20.369065,-1.09899 -17.460953,-3.65991 2.32772,-1.82484 10.184557,-3.65479 17.460953,-3.65479 7.276438,0 15.13326,1.82995 17.46098,3.65479 z m 161.492571,11.33754 11.6386,0.36803 -16.00079,5.11671 c -15.42038,4.7589 -16.29406,4.39088 -27.64551,-4.75379 -9.89129,-8.04566 -10.76495,-9.87051 -6.10951,-12.06849 3.20139,-1.09389 9.89129,0.73097 16.00691,4.39088 5.52299,3.65479 15.42039,6.58373 22.1103,6.94666 z M 244.78663,336.9916 c 2.3277,1.82995 3.20137,3.65991 1.45404,3.65991 -1.45404,0 -4.94869,-1.82996 -7.27641,-3.65991 -2.32772,-1.82484 -2.90812,-3.65479 -1.45406,-3.65479 1.74732,0 4.94869,1.82995 7.27643,3.65479 z m 72.74588,3.65991 c -7.85682,7.67763 -11.63861,9.13953 -11.63861,4.38576 0,-3.29188 11.05821,-10.96951 16.00078,-11.33754 1.74733,0 -0.28714,2.92894 -4.36217,6.95178 z m -27.64552,0 c -0.87366,1.82996 -4.06894,3.65479 -6.68992,3.65479 -4.36829,0 -4.36829,-0.73096 -0.5804,-3.65479 5.81625,-4.7538 9.59804,-4.7538 7.27032,0 z m 63.14784,14.99233 c -1.1669,6.95178 -4.65544,12.79945 -7.27642,13.53041 -6.10951,1.46704 -32.88134,-14.99233 -27.93265,-17.18521 6.1095,-2.56091 36.07663,-9.8756 36.95028,-9.14466 0.58652,0.36805 -0.28715,6.21571 -1.74121,12.79946 z m -60.23361,1.46193 c -4.65543,2.92894 -15.13325,5.1218 -23.28333,5.1218 l -14.54672,-0.36802 13.09266,-4.75378 c 7.27643,-2.55581 17.75422,-4.7538 23.27722,-4.7538 h 10.18455 z m 117.84625,-2.55581 c 0,1.82484 -4.07504,10.96949 -9.02374,20.11417 -9.59803,18.28418 -25.89209,32.18264 -43.93345,38.39834 -12.51227,4.38576 -12.80552,3.29189 -8.15009,-18.2842 2.62098,-11.70558 4.3622,-13.53552 13.96635,-15.72841 6.1095,-1.09899 18.91503,-7.67761 28.2259,-14.62939 19.7887,-14.26138 18.91503,-13.89335 18.91503,-9.87051 z m -210.96123,28.15982 c 23.57048,8.04567 86.71224,11.33755 119.00707,5.84767 13.97244,-2.56092 26.19145,-4.02283 26.77184,-3.29186 0.29326,0.73094 -0.58039,8.41369 -2.32772,16.82739 -2.90811,15.35525 -3.20136,15.35525 -16.58731,15.35525 -17.1677,0 -78.85538,-12.79943 -109.40901,-22.30703 -21.24276,-6.94667 -71.29182,-33.28165 -71.29182,-37.6674 0,-0.73097 8.15009,2.92382 18.33462,8.77662 9.89128,5.48474 26.19145,13.16748 35.50233,16.45936 z m 124.53617,-16.82739 c 9.02373,6.22082 15.71366,11.70557 14.25958,12.80456 -1.1608,0.73095 -17.46096,3.28676 -36.08274,5.48475 -39.27801,4.7538 -78.85538,0.73095 -105.62724,-10.24364 l -17.45485,-7.30961 55.2849,0.73096 c 47.4281,0.73096 56.45185,0 64.01541,-5.48986 4.94871,-3.65479 8.73047,-6.21571 8.73047,-6.21571 0,-0.36291 7.56358,4.39087 16.87447,10.23855 z m -131.81258,27.42887 c 27.93265,11.70556 73.61953,23.40601 113.77121,28.89589 l 31.72053,4.38575 -6.10949,15.72839 c -3.49463,8.77661 -11.05821,20.11416 -16.58731,25.5989 -9.02373,8.77663 -12.80552,9.87564 -32.30094,9.87564 -21.5299,0 -23.57048,-0.73608 -61.6877,-24.50503 -43.0659,-26.32988 -64.30864,-47.91107 -75.36684,-75.70284 l -6.39665,-15.72841 15.71364,10.9746 c 8.43723,6.21571 25.31169,15.36038 37.24355,20.47711 z"
       id="path1" />
  </g>
</svg>
