<?xml version="1.0" encoding="UTF-8"?>
<svg xmlns="http://www.w3.org/2000/svg" xmlns:xlink="http://www.w3.org/1999/xlink" width="512px" height="512px" viewBox="0 0 512 512" version="1.1">
<g id="surface1">
<path style=" stroke:none;fill-rule:nonzero;fill:rgb(0%,0%,0%);fill-opacity:1;" d="M 189.953125 81.328125 C 164.835938 88.59375 132.464844 110.113281 118.511719 128.839844 C 110.511719 139.179688 100.277344 164.613281 97.859375 179.144531 C 97.300781 183.335938 94.511719 188.925781 91.722656 191.71875 C 81.488281 201.503906 66.417969 225.257812 62.140625 238.113281 C 53.765625 263.265625 57.117188 293.730469 69.765625 306.304688 C 75.90625 312.175781 75.722656 314.410156 68.652344 318.882812 C 65.300781 320.839844 51.722656 338.164062 38.324219 357.449219 C 24.746094 376.734375 10.605469 395.738281 6.882812 399.652344 C 3.164062 403.5625 0 407.753906 0 408.875 C 0 413.625 18.046875 392.105469 38.882812 362.199219 C 51.164062 345.152344 65.117188 327.546875 70.324219 323.355469 C 79.070312 316.367188 80.1875 316.085938 90.046875 319.160156 C 97.859375 321.398438 103.8125 321.398438 113.117188 319.160156 C 128.746094 315.25 131.722656 317.765625 139.535156 342.078125 C 146.234375 363.597656 158.511719 381.207031 177.488281 397.136719 C 193.117188 409.992188 215.628906 423.40625 226.234375 426.199219 C 242.789062 430.113281 258.976562 416.140625 265.488281 392.382812 C 267.90625 383.441406 270.140625 379.527344 273.488281 378.410156 C 293.394531 371.984375 307.90625 355.214844 314.605469 330.898438 C 318.511719 316.925781 319.441406 315.527344 328.929688 310.21875 C 342.140625 302.671875 360.371094 299.320312 386.417969 299.039062 C 419.347656 299.039062 438.882812 290.097656 454.699219 268.296875 C 466.046875 252.644531 473.117188 235.320312 483.90625 197.03125 C 494.882812 158.183594 499.347656 144.769531 506.417969 129.117188 C 509.582031 122.410156 511.628906 116.542969 511.070312 115.703125 C 509.210938 112.910156 494.511719 151.476562 485.582031 182.496094 C 471.8125 230.847656 467.722656 242.304688 458.046875 257.675781 C 440 286.742188 426.605469 293.171875 378.605469 296.246094 C 350.511719 297.921875 341.023438 299.597656 332.09375 304.070312 C 325.953125 307.144531 320.746094 309.378906 320.558594 309.101562 C 318.699219 306.585938 324.652344 287.859375 328.929688 283.109375 C 331.722656 280.035156 336.371094 271.089844 339.347656 262.988281 C 344.746094 247.894531 344.929688 239.789062 341.394531 209.328125 C 340.464844 202.0625 341.394531 194.234375 344.1875 181.9375 C 350.511719 155.949219 347.164062 136.664062 334.324219 126.882812 C 330.976562 124.085938 320.558594 121.011719 310.699219 119.617188 C 301.023438 118.21875 290.789062 116.820312 288 116.261719 C 285.394531 115.703125 280 111.511719 275.90625 107.039062 C 258.789062 86.636719 240.558594 78.253906 216 78.53125 C 206.140625 78.8125 194.417969 79.929688 189.953125 81.328125 Z M 254.699219 93.625 L 266.417969 102.007812 L 250.976562 101.449219 C 233.117188 100.613281 222.882812 97.816406 208.371094 89.433594 L 198.140625 83.5625 L 220.464844 84.679688 C 240.558594 85.519531 243.90625 86.359375 254.699219 93.625 Z M 209.300781 95.300781 C 210.234375 96.699219 208.371094 97.816406 204.652344 97.816406 C 185.117188 98.097656 162.234375 114.027344 145.675781 138.898438 C 138.976562 148.679688 133.210938 156.226562 132.652344 155.386719 C 130.605469 152.3125 148.09375 121.851562 158.324219 110.394531 C 167.628906 100.050781 175.253906 95.300781 188.835938 91.386719 C 193.859375 89.710938 207.070312 92.507812 209.300781 95.300781 Z M 152.1875 110.671875 C 147.535156 115.984375 140.09375 128 135.628906 137.503906 C 131.164062 146.726562 126.699219 155.667969 125.582031 157.066406 C 120.558594 163.773438 103.253906 178.304688 102.699219 176.070312 C 101.394531 170.480469 112.746094 144.210938 121.488281 132.472656 C 129.675781 121.570312 154.046875 100.613281 158.699219 100.613281 C 159.8125 100.613281 156.835938 105.082031 152.1875 110.671875 Z M 220.464844 104.246094 C 223.441406 107.597656 222.511719 108.4375 211.90625 111.511719 C 191.070312 117.660156 166.511719 131.074219 154.605469 142.53125 C 148.277344 148.679688 142.511719 153.710938 141.953125 153.710938 C 139.164062 153.710938 154.046875 133.03125 162.789062 124.367188 C 174.324219 113.1875 186.417969 106.199219 199.253906 103.40625 C 214.324219 100.332031 216.746094 100.332031 220.464844 104.246094 Z M 232.558594 104.523438 C 232.558594 107.597656 229.023438 108.714844 227.90625 106.199219 C 227.347656 104.804688 228.09375 103.40625 229.582031 103.40625 C 231.253906 103.40625 232.558594 103.964844 232.558594 104.523438 Z M 266.605469 110.671875 C 272.371094 115.144531 273.300781 120.175781 268.464844 120.175781 C 264.371094 120.175781 249.300781 108.4375 249.300781 105.363281 C 249.300781 102.289062 259.90625 105.640625 266.605469 110.671875 Z M 251.535156 117.660156 C 260.835938 121.292969 261.953125 125.207031 254.140625 127.441406 C 247.253906 129.117188 234.417969 121.851562 232.929688 115.421875 C 232.1875 111.789062 237.023438 112.347656 251.535156 117.660156 Z M 217.675781 117.378906 C 216.1875 118.777344 209.300781 123.25 202.605469 127.160156 C 190.699219 134.148438 177.675781 148.960938 173.582031 160.699219 C 171.90625 164.613281 170.976562 165.171875 168.929688 162.933594 C 167.628906 161.257812 162.976562 158.183594 158.699219 156.226562 C 152.929688 153.710938 151.253906 152.035156 152.558594 149.519531 C 155.722656 143.929688 180.652344 127.71875 196.277344 121.292969 C 212.464844 114.585938 222.511719 112.628906 217.675781 117.378906 Z M 230.699219 120.453125 C 230.699219 121.851562 228.464844 122.96875 225.675781 122.96875 C 220.652344 122.691406 220.652344 122.691406 224 118.777344 C 227.535156 114.863281 230.699219 115.421875 230.699219 120.453125 Z M 234.417969 129.957031 C 236.277344 133.308594 235.722656 134.429688 231.441406 136.941406 C 223.070312 141.695312 189.394531 167.964844 184.371094 173.554688 C 180.277344 178.585938 176.746094 178.304688 176.746094 173.273438 C 176.746094 167.964844 187.164062 152.875 200.1875 139.738281 C 212.277344 127.71875 215.628906 125.765625 223.253906 125.765625 C 228.835938 125.765625 232.929688 127.160156 234.417969 129.957031 Z M 287.253906 132.75 C 289.859375 138.621094 289.859375 139.738281 287.628906 139.738281 C 285.210938 139.738281 280.929688 131.914062 280.929688 127.441406 C 280.929688 123.25 284.464844 126.324219 287.253906 132.75 Z M 315.722656 134.148438 C 329.117188 148.960938 342.140625 185.851562 336.929688 193.675781 C 335.441406 195.914062 334.882812 195.074219 334.882812 190.601562 C 334.882812 181.378906 318.324219 158.183594 305.675781 149.519531 C 298.789062 144.769531 293.582031 138.898438 291.535156 133.867188 L 288.558594 125.765625 L 298.234375 125.765625 C 306.234375 125.765625 309.582031 127.441406 315.722656 134.148438 Z M 330.046875 129.675781 C 341.765625 136.941406 346.046875 150.636719 343.070312 172.996094 C 341.765625 182.21875 338.605469 185.011719 338.605469 176.628906 C 338.605469 168.523438 328 143.652344 320.558594 134.429688 L 313.488281 125.765625 L 318.699219 125.765625 C 321.488281 125.765625 326.511719 127.441406 330.046875 129.675781 Z M 266.976562 131.355469 C 267.535156 132.75 266.789062 134.148438 265.117188 134.148438 C 263.441406 134.148438 262.699219 132.75 263.253906 131.355469 C 263.8125 129.675781 264.746094 128.558594 265.117188 128.558594 C 265.488281 128.558594 266.417969 129.675781 266.976562 131.355469 Z M 278.140625 131.632812 C 280.371094 136.941406 277.210938 138.0625 274.046875 133.308594 C 271.070312 128.839844 271.070312 128.558594 273.859375 128.558594 C 275.535156 128.558594 277.582031 129.957031 278.140625 131.632812 Z M 195.164062 137.78125 C 194.789062 138.339844 189.953125 145.046875 184.371094 152.59375 C 176.929688 162.65625 175.253906 164.050781 177.675781 158.460938 C 180.652344 151.753906 192.558594 136.941406 195.164062 136.941406 C 195.535156 136.941406 195.535156 137.222656 195.164062 137.78125 Z M 265.859375 152.035156 L 270.324219 159.300781 L 264 159.300781 C 260.464844 159.300781 256 157.34375 254.140625 155.109375 C 252.09375 152.875 248.929688 150.917969 246.882812 150.917969 C 241.488281 150.917969 244.277344 144.210938 250.417969 142.253906 C 256.746094 140.296875 259.90625 142.253906 265.859375 152.035156 Z M 270.699219 141.414062 C 273.300781 143.089844 279.070312 156.226562 279.070312 160.699219 C 279.070312 164.613281 274.789062 161.257812 269.765625 152.875 C 262.324219 140.578125 262.699219 136.941406 270.699219 141.414062 Z M 229.394531 152.875 C 224 156.785156 213.953125 167.6875 207.070312 176.910156 C 196.464844 191.71875 195.164062 192.839844 198.324219 184.734375 C 203.164062 171.878906 217.859375 152.59375 225.488281 148.960938 C 236.835938 143.371094 239.070312 145.605469 229.394531 152.875 Z M 296.371094 167.6875 C 298.234375 179.144531 297.300781 180.542969 291.347656 174.113281 C 288 170.480469 286.699219 166.566406 286.511719 159.582031 C 286.511719 150.636719 286.699219 150.359375 290.605469 154.269531 C 292.835938 156.507812 295.441406 162.65625 296.371094 167.6875 Z M 311.8125 159.859375 C 321.488281 169.921875 322.605469 173.835938 315.90625 176.347656 C 312.558594 177.46875 310.140625 175.230469 304.746094 166.566406 C 301.023438 160.140625 297.859375 154.269531 297.675781 152.875 C 297.675781 148.402344 303.253906 151.195312 311.8125 159.859375 Z M 241.488281 163.214844 C 242.046875 168.523438 240.746094 173.554688 237.582031 178.585938 C 229.582031 191.441406 226.234375 204.296875 226.234375 222.742188 C 226.046875 232.523438 225.300781 240.347656 224.558594 240.347656 C 222.511719 240.347656 199.070312 211.84375 199.070312 209.605469 C 199.070312 202.339844 234.976562 152.59375 238.699219 154.550781 C 240 155.109375 241.117188 159.023438 241.488281 163.214844 Z M 252.09375 159.023438 C 252.652344 160.699219 251.535156 163.214844 249.488281 164.613281 C 246.699219 167.125 245.765625 166.566406 245.023438 162.097656 C 244.277344 157.902344 245.023438 156.507812 247.441406 156.507812 C 249.488281 156.507812 251.347656 157.625 252.09375 159.023438 Z M 163.164062 163.773438 C 167.253906 166.847656 169.117188 169.921875 168.558594 172.4375 C 167.8125 174.671875 167.441406 177.1875 167.441406 177.746094 C 167.441406 178.304688 165.210938 178.863281 162.417969 178.863281 C 157.582031 178.863281 152 181.101562 137.300781 188.644531 C 129.488281 192.839844 129.300781 192.558594 132.277344 183.617188 C 138.234375 166.289062 143.441406 159.300781 149.953125 159.300781 C 153.675781 159.300781 159.628906 161.257812 163.164062 163.773438 Z M 132.09375 163.492188 C 132.09375 164.613281 130.976562 168.523438 129.488281 172.714844 C 125.394531 184.734375 119.070312 222.460938 119.070312 235.039062 C 119.070312 248.734375 124.652344 265.78125 131.164062 272.210938 C 135.628906 276.679688 135.8125 277.800781 134.699219 291.492188 C 133.953125 299.597656 133.210938 306.585938 132.652344 307.144531 C 131.347656 309.660156 118.699219 288.976562 114.789062 278.078125 C 111.441406 268.855469 110.699219 262.429688 110.699219 240.347656 C 110.882812 212.679688 113.675781 198.429688 124.835938 171.320312 C 128.1875 163.214844 132.09375 159.023438 132.09375 163.492188 Z M 208.371094 185.851562 C 200.746094 197.308594 194.046875 206.8125 193.675781 206.8125 C 193.117188 206.8125 198.882812 197.308594 206.511719 185.851562 C 214.140625 174.394531 220.835938 164.890625 221.210938 164.890625 C 221.765625 164.890625 216 174.394531 208.371094 185.851562 Z M 274.976562 172.4375 C 278.882812 180.542969 277.582031 188.367188 271.441406 193.957031 C 268.277344 196.75 265.488281 198.429688 265.300781 197.867188 C 264.929688 197.589844 264.1875 189.765625 263.628906 180.820312 L 262.511719 164.332031 L 267.535156 166.289062 C 270.324219 167.125 273.675781 169.921875 274.976562 172.4375 Z M 114.234375 191.160156 C 109.023438 207.371094 107.164062 217.710938 106.234375 234.199219 L 104.929688 255.71875 L 102.699219 244.542969 C 99.535156 229.449219 97.859375 203.457031 99.347656 194.515625 C 100.09375 190.042969 104.1875 183.617188 110.140625 177.46875 C 115.535156 172.15625 120 168.246094 120.371094 168.804688 C 120.746094 169.363281 117.953125 179.421875 114.234375 191.160156 Z M 260.277344 178.027344 C 263.441406 195.074219 262.882812 202.898438 257.859375 207.929688 C 255.441406 210.164062 250.605469 217.992188 247.253906 224.976562 C 243.90625 231.964844 241.117188 237.273438 240.746094 236.714844 C 240.558594 236.4375 241.488281 229.171875 242.976562 220.785156 C 244.464844 212.402344 245.582031 198.429688 245.582031 189.765625 C 245.582031 176.347656 246.140625 173.835938 249.859375 171.039062 C 256.746094 166.007812 258.417969 167.125 260.277344 178.027344 Z M 305.117188 176.347656 C 306.789062 180.820312 306.417969 181.660156 303.253906 181.660156 C 300.464844 181.660156 299.535156 179.703125 299.535156 174.394531 C 299.535156 166.847656 302.140625 167.40625 305.117188 176.347656 Z M 281.859375 172.996094 C 282.417969 174.394531 282.046875 176.347656 281.117188 177.1875 C 280.1875 178.027344 279.070312 176.910156 278.324219 174.671875 C 277.210938 170.199219 280 168.804688 281.859375 172.996094 Z M 187.90625 180.261719 C 185.488281 184.175781 183.070312 186.410156 182.511719 185.570312 C 181.953125 184.734375 183.441406 181.660156 185.859375 178.585938 C 192 171.039062 193.117188 171.878906 187.90625 180.261719 Z M 195.535156 181.378906 C 193.300781 185.851562 190.882812 192.28125 189.953125 195.914062 C 188.464844 201.78125 188.09375 202.0625 186.976562 197.589844 C 186.046875 194.515625 187.347656 189.484375 190.511719 183.058594 C 196.464844 171.320312 200.929688 169.921875 195.535156 181.378906 Z M 290.234375 180.261719 C 292.09375 183.617188 292.09375 184.453125 289.488281 184.453125 C 287.8125 184.453125 286.511719 182.496094 286.511719 180.261719 C 286.511719 178.027344 286.882812 176.070312 287.253906 176.070312 C 287.628906 176.070312 288.929688 178.027344 290.234375 180.261719 Z M 242.234375 200.382812 C 240.371094 220.507812 235.722656 240.347656 232.929688 240.347656 C 229.953125 240.347656 228.835938 223.859375 230.882812 210.164062 C 232.558594 198.148438 241.117188 176.910156 243.164062 179.703125 C 243.535156 180.542969 243.164062 189.765625 242.234375 200.382812 Z M 328.1875 185.011719 C 332.652344 194.515625 331.90625 195.074219 322.976562 188.925781 C 317.582031 185.292969 315.347656 182.496094 316.835938 181.101562 C 320.929688 177.1875 325.394531 178.863281 328.1875 185.011719 Z M 165.023438 186.132812 C 164.464844 186.96875 162.789062 187.25 161.488281 186.410156 C 160 185.570312 160.558594 184.734375 162.605469 184.734375 C 164.652344 184.453125 165.765625 185.292969 165.023438 186.132812 Z M 296.558594 189.765625 C 297.117188 191.160156 295.628906 194.234375 293.023438 196.75 C 287.441406 202.339844 287.070312 202.339844 287.070312 196.191406 C 287.070312 188.644531 294.140625 183.894531 296.558594 189.765625 Z M 312.558594 211.84375 C 312.558594 233.363281 309.210938 247.335938 301.023438 260.75 L 293.765625 272.488281 L 298.417969 259.914062 C 305.117188 241.46875 307.535156 222.183594 305.117188 205.414062 C 303.441406 194.792969 303.628906 191.441406 305.488281 189.765625 C 309.582031 185.851562 312.558594 195.632812 312.558594 211.84375 Z M 137.859375 199.824219 C 135.8125 204.015625 133.582031 211.84375 132.835938 217.710938 C 130.789062 235.039062 128.929688 236.4375 127.441406 221.902344 C 126.140625 208.769531 126.324219 207.929688 133.023438 198.988281 C 140.835938 188.367188 143.8125 188.925781 137.859375 199.824219 Z M 163.347656 195.632812 C 163.535156 197.867188 160.371094 206.8125 156.09375 215.195312 C 151.8125 223.582031 146.605469 235.878906 144.558594 242.304688 C 140.277344 255.441406 139.347656 256.28125 135.8125 250.132812 C 130.605469 240.910156 138.234375 200.382812 146.417969 193.117188 C 151.253906 188.644531 162.605469 190.601562 163.347656 195.632812 Z M 327.070312 197.308594 C 329.300781 199.546875 331.164062 204.015625 331.164062 207.089844 C 331.164062 216.875 319.628906 246.21875 309.210938 263.265625 C 299.347656 279.195312 287.253906 292.613281 285.394531 289.816406 C 284.835938 288.976562 287.628906 285.066406 291.722656 281.152344 C 311.070312 262.988281 320.371094 232.804688 316.464844 201.78125 C 314.976562 190.601562 315.164062 190.042969 318.882812 191.71875 C 320.929688 192.558594 324.652344 195.074219 327.070312 197.308594 Z M 100.464844 250.132812 C 102.511719 259.355469 108.277344 276.402344 113.488281 287.859375 C 118.511719 299.320312 122.417969 308.820312 122.234375 309.101562 C 122.046875 309.378906 117.023438 308.261719 110.882812 306.863281 C 103.253906 304.910156 96.929688 304.910156 89.859375 307.144531 C 80.558594 309.9375 78.882812 309.660156 73.300781 304.628906 C 66.789062 298.480469 59.535156 279.195312 59.535156 267.738281 C 59.535156 248.175781 69.210938 224.417969 84.652344 205.972656 L 93.953125 194.792969 L 95.441406 214.078125 C 96.1875 224.699219 98.417969 240.910156 100.464844 250.132812 Z M 175.628906 197.867188 C 176.746094 200.941406 170.789062 226.375 168.929688 226.375 C 166.511719 226.375 167.253906 202.621094 169.675781 198.988281 C 172.277344 195.074219 174.324219 194.792969 175.628906 197.867188 Z M 274.046875 204.296875 C 272.1875 209.046875 269.210938 214.636719 267.535156 217.152344 C 264.371094 221.34375 264.1875 221.066406 264.1875 214.359375 C 264.1875 209.886719 266.046875 205.136719 269.394531 201.503906 C 276.464844 193.398438 277.953125 194.234375 274.046875 204.296875 Z M 284.09375 204.578125 C 283.535156 206.8125 282.976562 205.972656 282.976562 202.898438 C 282.789062 199.824219 283.347656 198.148438 283.90625 199.265625 C 284.464844 200.105469 284.652344 202.621094 284.09375 204.578125 Z M 184.929688 205.414062 C 187.347656 209.046875 187.347656 210.726562 184.929688 219.386719 C 183.441406 224.699219 182.324219 233.640625 182.140625 239.511719 C 181.953125 245.378906 181.394531 253.207031 180.652344 256.558594 C 179.535156 262.988281 179.347656 262.707031 175.253906 251.808594 C 172.464844 244.542969 171.347656 238.113281 172.09375 233.921875 C 173.394531 226.933594 180.835938 201.222656 181.582031 201.222656 C 181.765625 201.222656 183.253906 203.179688 184.929688 205.414062 Z M 295.8125 205.972656 C 295.628906 218.828125 284.652344 275.5625 281.488281 278.917969 C 276.835938 283.949219 276.652344 280.035156 280.929688 261.308594 C 283.164062 252.085938 285.210938 236.996094 285.953125 227.773438 C 286.882812 212.402344 290.417969 201.222656 294.324219 201.222656 C 295.070312 201.222656 295.8125 203.457031 295.8125 205.972656 Z M 301.210938 231.40625 C 299.347656 244.261719 292.464844 266.898438 290.976562 264.941406 C 290.605469 264.105469 292.464844 249.292969 295.253906 231.6875 C 299.90625 202.621094 300.464844 200.664062 301.582031 209.605469 C 302.324219 214.917969 302.140625 224.976562 301.210938 231.40625 Z M 167.441406 260.75 C 168.558594 269.972656 169.117188 277.800781 168.558594 278.636719 C 167.070312 280.875 151.441406 271.652344 146.605469 265.503906 C 142.511719 260.472656 142.324219 260.472656 145.675781 249.851562 C 147.535156 243.703125 151.8125 233.082031 154.976562 225.539062 L 160.929688 212.402344 L 163.164062 228.332031 C 164.277344 237.273438 166.140625 251.808594 167.441406 260.75 Z M 259.90625 224.699219 C 258.976562 228.050781 247.441406 236.15625 247.441406 233.363281 C 247.441406 232.804688 250.234375 227.492188 253.582031 221.902344 C 258.234375 213.519531 259.722656 212.402344 260.09375 216.3125 C 260.464844 218.828125 260.277344 222.742188 259.90625 224.699219 Z M 208.929688 229.171875 C 213.765625 234.480469 217.675781 240.070312 217.675781 241.1875 C 217.675781 242.585938 214.511719 243.144531 210.789062 242.585938 C 204.835938 241.746094 203.164062 240.070312 199.628906 230.566406 C 192.558594 211.84375 193.675781 211.5625 208.929688 229.171875 Z M 279.070312 221.625 C 279.070312 231.40625 272.371094 252.644531 265.675781 263.824219 C 261.582031 271.089844 257.488281 276.679688 256.746094 276.679688 C 255.8125 276.679688 256.1875 271.929688 257.488281 266.0625 C 258.789062 260.472656 260.652344 250.410156 261.210938 243.984375 C 262.324219 235.039062 264 230.847656 269.394531 225.257812 C 277.394531 217.152344 279.070312 216.59375 279.070312 221.625 Z M 280.746094 243.984375 C 276.652344 269.695312 272.371094 282.269531 267.347656 282.269531 C 260.464844 282.269531 260.277344 279.476562 266.417969 269.972656 C 272.558594 260.75 280.746094 236.996094 281.117188 227.773438 C 281.117188 224.699219 281.675781 223.859375 282.234375 225.816406 C 282.789062 227.773438 282.046875 235.878906 280.746094 243.984375 Z M 194.976562 233.640625 C 196.277344 237.554688 196.464844 240.070312 195.347656 238.953125 C 192.558594 236.4375 189.394531 226.375 191.253906 226.375 C 192.1875 226.375 193.859375 229.730469 194.976562 233.640625 Z M 331.164062 243.144531 L 329.117188 250.132812 L 330.234375 243.144531 C 330.605469 239.230469 331.164062 233.640625 331.347656 230.566406 C 331.722656 225.257812 331.722656 225.257812 332.464844 230.566406 C 332.835938 233.921875 332.277344 239.511719 331.164062 243.144531 Z M 340.277344 247.058594 C 339.164062 254.324219 335.441406 264.105469 331.722656 270.253906 C 324.652344 281.992188 324.652344 281.992188 333.394531 249.851562 C 339.90625 225.539062 344.1875 223.859375 340.277344 247.058594 Z M 124.652344 236.996094 C 124.652344 239.511719 126.324219 247.058594 128.371094 253.765625 C 132.277344 266.621094 130.046875 267.457031 125.765625 254.882812 C 122.046875 243.984375 120 228.050781 122.605469 230.289062 C 123.722656 231.40625 124.652344 234.480469 124.652344 236.996094 Z M 194.789062 244.820312 C 198.699219 248.734375 203.347656 255.71875 205.210938 260.191406 L 208.746094 268.296875 L 203.535156 271.089844 C 196.835938 275.003906 194.234375 273.328125 189.765625 262.148438 C 186.605469 254.042969 184.558594 237.554688 186.976562 237.554688 C 187.347656 237.554688 190.882812 240.910156 194.789062 244.820312 Z M 257.488281 247.894531 C 256.929688 252.367188 255.628906 259.632812 254.511719 264.664062 L 252.835938 273.605469 L 246.324219 267.457031 C 242.976562 264.105469 240 260.75 240 259.914062 C 240.1875 258.515625 256.929688 240.347656 258.234375 240.347656 C 258.417969 240.347656 258.234375 243.703125 257.488281 247.894531 Z M 324.464844 256.28125 C 322.417969 269.695312 320.558594 274.445312 314.234375 282.828125 C 309.953125 288.417969 303.441406 293.730469 299.90625 294.847656 C 292.464844 296.804688 289.675781 294.289062 294.699219 290.097656 C 300.835938 284.785156 312.371094 268.015625 319.253906 254.042969 C 322.976562 246.496094 326.140625 240.347656 326.511719 240.347656 C 326.699219 240.347656 325.765625 247.617188 324.464844 256.28125 Z M 226.976562 254.042969 C 226.976562 255.160156 224.1875 257.398438 221.023438 259.355469 C 215.441406 262.429688 214.699219 262.148438 211.722656 256.558594 C 208.558594 250.132812 208.558594 250.132812 215.441406 248.734375 C 221.765625 247.335938 226.976562 249.570312 226.976562 254.042969 Z M 182.324219 275.84375 C 182.324219 277.800781 181.582031 279.476562 180.652344 279.476562 C 178.417969 279.476562 171.164062 261.867188 171.164062 256.839844 C 171.164062 252.367188 182.140625 271.089844 182.324219 275.84375 Z M 189.765625 270.8125 L 194.046875 280.3125 L 189.210938 275.285156 C 186.417969 272.769531 184.1875 267.738281 184.1875 264.664062 C 184.1875 261.589844 184.371094 259.632812 184.746094 260.191406 C 185.117188 260.75 187.347656 265.503906 189.765625 270.8125 Z M 226.976562 261.308594 C 226.976562 261.867188 225.117188 263.824219 222.882812 265.503906 C 218.789062 268.578125 218.789062 268.296875 222.140625 264.382812 C 226.046875 259.632812 226.976562 259.074219 226.976562 261.308594 Z M 246.511719 278.917969 C 249.675781 281.710938 248.929688 281.992188 241.488281 282.269531 C 236.835938 282.269531 231.628906 281.433594 229.953125 280.59375 C 227.347656 279.195312 227.347656 278.078125 230.140625 270.8125 L 233.300781 262.707031 L 238.140625 269.414062 C 240.746094 273.046875 244.464844 277.238281 246.511719 278.917969 Z M 149.953125 275.84375 C 148.277344 278.636719 141.394531 273.328125 141.394531 269.414062 C 141.394531 266.0625 142.140625 266.0625 146.046875 269.972656 C 148.652344 272.488281 150.511719 275.285156 149.953125 275.84375 Z M 213.953125 279.476562 C 213.953125 280.875 211.722656 282.269531 208.929688 281.992188 C 204.277344 281.992188 204.09375 281.710938 207.441406 279.476562 C 212.464844 276.121094 213.953125 276.121094 213.953125 279.476562 Z M 167.070312 283.949219 C 172.835938 285.625 172.09375 289.539062 165.210938 293.171875 C 160 295.964844 158.511719 295.40625 152.1875 289.257812 C 148.277344 285.34375 145.117188 281.710938 145.117188 281.152344 C 145.117188 280.035156 160.746094 281.992188 167.070312 283.949219 Z M 318.140625 286.460938 C 316.835938 288.699219 314.976562 290.65625 313.859375 290.65625 C 312.929688 290.65625 313.488281 288.140625 315.347656 285.066406 C 319.253906 278.636719 321.859375 279.753906 318.140625 286.460938 Z M 146.046875 290.65625 C 152 300.15625 152 300.4375 143.8125 303.230469 C 137.675781 305.1875 137.675781 305.1875 137.675781 293.730469 C 137.675781 287.300781 138.417969 282.269531 139.164062 282.269531 C 140.09375 282.269531 143.070312 285.902344 146.046875 290.65625 Z M 199.070312 289.257812 L 203.722656 292.890625 L 198.699219 294.847656 C 192.371094 297.363281 187.90625 295.125 187.90625 289.257812 C 187.90625 283.949219 192.929688 283.949219 199.070312 289.257812 Z M 231.253906 289.816406 C 229.953125 290.375 227.722656 290.375 226.605469 289.816406 C 225.300781 288.976562 226.234375 288.417969 228.835938 288.417969 C 231.441406 288.417969 232.371094 288.976562 231.253906 289.816406 Z M 264.929688 289.539062 C 269.953125 292.332031 266.234375 296.246094 258.417969 296.246094 C 250.234375 296.246094 248.558594 291.492188 256.371094 289.816406 C 259.164062 289.257812 261.582031 288.417969 261.765625 288.140625 C 261.953125 288.140625 263.253906 288.699219 264.929688 289.539062 Z M 185.859375 294.566406 C 187.535156 297.640625 187.347656 298.761719 184.929688 300.15625 C 181.210938 302.394531 178.605469 299.878906 178.605469 294.566406 C 178.605469 289.539062 183.070312 289.539062 185.859375 294.566406 Z M 174.882812 297.363281 C 174.882812 299.878906 173.582031 300.714844 170.976562 299.878906 C 168 298.761719 167.8125 297.640625 169.675781 295.964844 C 173.210938 292.332031 174.882812 292.890625 174.882812 297.363281 Z M 210.234375 294.847656 C 210.234375 297.363281 199.441406 304.347656 198.324219 302.671875 C 197.582031 301.554688 199.441406 299.320312 202.234375 297.363281 C 208 293.449219 210.234375 292.890625 210.234375 294.847656 Z M 239.628906 300.996094 C 237.023438 304.910156 230.699219 303.511719 230.699219 299.039062 C 230.699219 296.246094 238.140625 294.007812 240.558594 295.6875 C 241.488281 296.246094 241.117188 298.761719 239.628906 300.996094 Z M 227.722656 301.554688 C 229.582031 304.628906 230.511719 308.261719 229.953125 309.9375 C 227.722656 315.25 218.046875 316.085938 210.976562 311.617188 L 203.90625 307.144531 L 209.300781 301.835938 C 216.371094 294.847656 223.628906 294.847656 227.722656 301.554688 Z M 314.417969 297.921875 C 314.417969 301.554688 302.882812 324.191406 298.417969 329.503906 C 292.835938 336.210938 279.628906 342.917969 277.765625 340.121094 C 277.210938 339.003906 277.582031 333.136719 278.882812 326.988281 C 280.929688 316.925781 282.417969 314.691406 291.722656 308.261719 C 307.347656 297.363281 314.417969 294.007812 314.417969 297.921875 Z M 253.765625 301.554688 C 256.746094 303.230469 256.1875 304.347656 249.488281 308.261719 C 240.371094 313.851562 236.464844 312.175781 241.117188 304.347656 C 244.464844 298.761719 247.8125 297.921875 253.765625 301.554688 Z M 279.070312 305.746094 C 279.070312 313.292969 277.582031 314.691406 264.929688 317.207031 L 255.8125 319.160156 L 261.210938 310.777344 C 264.371094 305.746094 269.023438 301.554688 272.371094 300.996094 C 275.535156 300.4375 278.324219 299.597656 278.699219 299.597656 C 278.882812 299.320312 279.070312 302.113281 279.070312 305.746094 Z M 295.8125 300.4375 C 295.8125 301.835938 285.582031 310.21875 283.722656 310.21875 C 283.164062 310.21875 282.789062 307.703125 282.789062 304.628906 C 282.789062 300.15625 284.09375 299.039062 289.300781 299.039062 C 292.835938 299.039062 295.8125 299.597656 295.8125 300.4375 Z M 173.394531 311.894531 C 178.234375 313.011719 184 316.644531 187.90625 321.675781 L 194.234375 329.78125 L 178.605469 329.78125 C 162.234375 329.503906 139.535156 320.839844 138.234375 313.851562 C 137.675781 311.894531 141.210938 308.820312 146.417969 306.585938 C 154.046875 303.230469 156.09375 303.230469 160.371094 306.585938 C 163.164062 308.542969 169.117188 311.058594 173.394531 311.894531 Z M 316.835938 307.421875 C 316.277344 310.21875 314.605469 314.410156 312.929688 316.367188 C 310.511719 319.441406 310.699219 318.601562 313.300781 310.777344 C 316.835938 300.714844 318.324219 299.320312 316.835938 307.421875 Z M 177.300781 306.585938 C 176 307.144531 173.765625 307.144531 172.652344 306.585938 C 171.347656 305.746094 172.277344 305.1875 174.882812 305.1875 C 177.488281 305.1875 178.417969 305.746094 177.300781 306.585938 Z M 190.324219 306.585938 C 189.023438 307.144531 186.789062 307.144531 185.675781 306.585938 C 184.371094 305.746094 185.300781 305.1875 187.90625 305.1875 C 190.511719 305.1875 191.441406 305.746094 190.324219 306.585938 Z M 111.628906 313.011719 C 113.488281 314.96875 110.140625 315.808594 100.464844 315.808594 C 90.789062 315.808594 87.441406 314.96875 89.300781 313.011719 C 90.789062 311.617188 95.8125 310.21875 100.464844 310.21875 C 105.117188 310.21875 110.140625 311.617188 111.628906 313.011719 Z M 214.882812 321.675781 L 222.324219 321.957031 L 212.09375 325.867188 C 202.234375 329.503906 201.675781 329.222656 194.417969 322.234375 C 188.09375 316.085938 187.535156 314.691406 190.511719 313.011719 C 192.558594 312.175781 196.835938 313.570312 200.746094 316.367188 C 204.277344 319.160156 210.605469 321.398438 214.882812 321.675781 Z M 206.511719 313.011719 C 208 314.410156 208.558594 315.808594 207.441406 315.808594 C 206.511719 315.808594 204.277344 314.410156 202.789062 313.011719 C 201.300781 311.617188 200.929688 310.21875 201.859375 310.21875 C 202.976562 310.21875 205.023438 311.617188 206.511719 313.011719 Z M 253.023438 315.808594 C 248 321.675781 245.582031 322.792969 245.582031 319.160156 C 245.582031 316.644531 252.652344 310.777344 255.8125 310.496094 C 256.929688 310.496094 255.628906 312.734375 253.023438 315.808594 Z M 235.347656 315.808594 C 234.789062 317.207031 232.746094 318.601562 231.070312 318.601562 C 228.277344 318.601562 228.277344 318.042969 230.699219 315.808594 C 234.417969 312.175781 236.835938 312.175781 235.347656 315.808594 Z M 275.722656 327.265625 C 274.976562 332.578125 272.746094 337.046875 271.070312 337.605469 C 267.164062 338.726562 250.046875 326.148438 253.210938 324.472656 C 257.117188 322.515625 276.277344 316.925781 276.835938 317.484375 C 277.210938 317.765625 276.652344 322.234375 275.722656 327.265625 Z M 237.210938 328.382812 C 234.234375 330.621094 227.535156 332.296875 222.324219 332.296875 L 213.023438 332.015625 L 221.394531 328.382812 C 226.046875 326.429688 232.746094 324.75 236.277344 324.75 L 242.789062 324.75 Z M 312.558594 326.429688 C 312.558594 327.824219 309.953125 334.8125 306.789062 341.800781 C 300.652344 355.773438 290.234375 366.394531 278.699219 371.144531 C 270.699219 374.496094 270.511719 373.660156 273.488281 357.171875 C 275.164062 348.226562 276.277344 346.828125 282.417969 345.152344 C 286.324219 344.3125 294.511719 339.285156 300.464844 333.972656 C 313.117188 323.074219 312.558594 323.355469 312.558594 326.429688 Z M 177.675781 347.949219 C 192.746094 354.097656 233.117188 356.613281 253.765625 352.417969 C 262.699219 350.460938 270.511719 349.34375 270.882812 349.902344 C 271.070312 350.460938 270.511719 356.332031 269.394531 362.761719 C 267.535156 374.496094 267.347656 374.496094 258.789062 374.496094 C 247.8125 374.496094 208.371094 364.714844 188.835938 357.449219 C 175.253906 352.140625 143.253906 332.015625 143.253906 328.664062 C 143.253906 328.105469 148.464844 330.898438 154.976562 335.371094 C 161.300781 339.5625 171.722656 345.433594 177.675781 347.949219 Z M 257.300781 335.089844 C 263.070312 339.84375 267.347656 344.035156 266.417969 344.875 C 265.675781 345.433594 255.253906 347.386719 243.347656 349.066406 C 218.234375 352.699219 192.929688 349.625 175.8125 341.238281 L 164.652344 335.652344 L 200 336.210938 C 230.324219 336.769531 236.09375 336.210938 240.929688 332.015625 C 244.09375 329.222656 246.511719 327.265625 246.511719 327.265625 C 246.511719 326.988281 251.347656 330.621094 257.300781 335.089844 Z M 173.023438 356.050781 C 190.882812 364.996094 220.09375 373.9375 245.765625 378.132812 L 266.046875 381.484375 L 262.140625 393.503906 C 259.90625 400.210938 255.070312 408.875 251.535156 413.066406 C 245.765625 419.773438 243.347656 420.613281 230.882812 420.613281 C 217.117188 420.613281 215.8125 420.050781 191.441406 401.886719 C 163.90625 381.765625 150.324219 365.273438 143.253906 344.035156 L 139.164062 332.015625 L 149.210938 340.402344 C 154.605469 345.152344 165.394531 352.140625 173.023438 356.050781 Z M 173.023438 356.050781 "/>
</g>
</svg>
